M48
; DRILL file KiCad 10.0.1-10.0.1~ubuntu22.04.1 date 2026-05-03T12:38:46
; FORMAT={-:-/ absolute / metric / decimal}
; #@! TF.CreationDate,2026-05-03T12:38:46+09:00
; #@! TF.GenerationSoftware,Kicad,Pcbnew,10.0.1-10.0.1~ubuntu22.04.1
; #@! TF.FileFunction,Plated,1,2,PTH
FMAT,2
METRIC
; #@! TA.AperFunction,Plated,PTH,ViaDrill
T1C0.300
; #@! TA.AperFunction,Plated,PTH,ViaDrill
T2C0.400
; #@! TA.AperFunction,Plated,PTH,ComponentDrill
T3C0.600
; #@! TA.AperFunction,Plated,PTH,ComponentDrill
T4C0.950
; #@! TA.AperFunction,Plated,PTH,ComponentDrill
T5C1.000
%
G90
G05
T1
X21.8Y-22.2
X22.8Y-25.8
X23.0Y-16.0
X23.0Y-37.0
X23.6Y-23.6
X23.8Y-21.6
X29.2Y-20.0
X29.2Y-23.2
X29.8Y-25.2
X30.6Y-26.0
X31.2Y-18.4
X32.6Y-24.6
X33.0Y-37.0
X33.6Y-20.8
X33.8Y-17.6
X33.8Y-24.6
X34.6Y-26.8
X34.8Y-22.8
X42.0Y-37.0
X48.0Y-37.0
X51.8Y-21.0
X52.0Y-18.8
X52.0Y-25.0
X53.8Y-30.6
X54.2Y-26.4
X54.4Y-37.2
X54.8Y-28.6
X56.0Y-25.0
X56.2Y-32.6
X56.4Y-28.6
X57.6Y-28.6
X58.4Y-31.8
X59.1Y-17.3
X59.2Y-27.8
X61.7Y-17.3
X62.0Y-28.6
X63.0Y-28.4
X64.6Y-20.4
X64.6Y-25.6
X64.8Y-33.0
X64.8Y-37.2
X65.0Y-27.2
X65.4Y-31.0
X66.2Y-34.6
X66.4Y-24.6
X67.2Y-25.4
X67.6Y-22.4
X67.8Y-32.8
X68.2Y-34.6
X68.8Y-31.6
X69.099Y-32.851
X69.4Y-24.6
X69.6Y-22.8
X69.8Y-29.8
X70.2Y-35.6
X70.4Y-15.8
X70.8Y-31.6
X74.8Y-25.2
X74.8Y-27.0
X74.8Y-28.6
X75.6Y-24.0
T2
X16.0Y-16.0
X16.0Y-22.0
X16.0Y-31.0
X16.0Y-37.0
X77.0Y-16.0
X77.0Y-22.0
X77.0Y-31.0
X77.0Y-37.0
T4
X25.9Y-28.3
X28.4Y-28.3
X30.9Y-28.3
X33.4Y-28.3
X39.5Y-28.3
X41.25Y-21.275
X42.0Y-28.3
X43.75Y-21.275
X44.5Y-28.3
X46.25Y-21.275
X47.0Y-28.3
X48.75Y-21.275
T5
X24.86Y-16.4
X27.4Y-16.4
X29.94Y-16.4
X32.48Y-16.4
X35.02Y-16.4
X36.4Y-20.725
X36.4Y-23.265
X37.56Y-16.4
X40.1Y-16.4
X42.64Y-16.4
X45.18Y-16.4
X47.72Y-16.4
X50.26Y-16.4
X52.8Y-16.4
X55.34Y-16.4
X57.88Y-16.4
X60.42Y-16.4
X62.96Y-16.4
X65.5Y-16.4
X68.04Y-16.4
T3
G00X55.28Y-30.32
M15
G01X55.28Y-31.42
M16
G05
G00X55.28Y-34.75
M15
G01X55.28Y-35.35
M16
G05
G00X63.92Y-30.32
M15
G01X63.92Y-31.42
M16
G05
G00X63.92Y-34.75
M15
G01X63.92Y-35.35
M16
G05
M30
