%TF.GenerationSoftware,KiCad,Pcbnew,10.0.1-10.0.1~ubuntu22.04.1*%
%TF.CreationDate,2026-05-03T12:38:40+09:00*%
%TF.ProjectId,jetson-interface-board,6a657473-6f6e-42d6-996e-746572666163,rev?*%
%TF.SameCoordinates,Original*%
%TF.FileFunction,Paste,Top*%
%TF.FilePolarity,Positive*%
%FSLAX46Y46*%
G04 Gerber Fmt 4.6, Leading zero omitted, Abs format (unit mm)*
G04 Created by KiCad (PCBNEW 10.0.1-10.0.1~ubuntu22.04.1) date 2026-05-03 12:38:40*
%MOMM*%
%LPD*%
G01*
G04 APERTURE LIST*
G04 Aperture macros list*
%AMRoundRect*
0 Rectangle with rounded corners*
0 $1 Rounding radius*
0 $2 $3 $4 $5 $6 $7 $8 $9 X,Y pos of 4 corners*
0 Add a 4 corners polygon primitive as box body*
4,1,4,$2,$3,$4,$5,$6,$7,$8,$9,$2,$3,0*
0 Add four circle primitives for the rounded corners*
1,1,$1+$1,$2,$3*
1,1,$1+$1,$4,$5*
1,1,$1+$1,$6,$7*
1,1,$1+$1,$8,$9*
0 Add four rect primitives between the rounded corners*
20,1,$1+$1,$2,$3,$4,$5,0*
20,1,$1+$1,$4,$5,$6,$7,0*
20,1,$1+$1,$6,$7,$8,$9,0*
20,1,$1+$1,$8,$9,$2,$3,0*%
G04 Aperture macros list end*
%ADD10RoundRect,0.237500X0.300000X0.237500X-0.300000X0.237500X-0.300000X-0.237500X0.300000X-0.237500X0*%
%ADD11RoundRect,0.237500X-0.287500X-0.237500X0.287500X-0.237500X0.287500X0.237500X-0.287500X0.237500X0*%
%ADD12RoundRect,0.237500X0.250000X0.237500X-0.250000X0.237500X-0.250000X-0.237500X0.250000X-0.237500X0*%
%ADD13RoundRect,0.237500X-0.250000X-0.237500X0.250000X-0.237500X0.250000X0.237500X-0.250000X0.237500X0*%
%ADD14RoundRect,0.237500X0.287500X0.237500X-0.287500X0.237500X-0.287500X-0.237500X0.287500X-0.237500X0*%
%ADD15RoundRect,0.172500X0.332500X-0.172500X0.332500X0.172500X-0.332500X0.172500X-0.332500X-0.172500X0*%
%ADD16RoundRect,0.050000X0.050000X-0.350000X0.050000X0.350000X-0.050000X0.350000X-0.050000X-0.350000X0*%
%ADD17RoundRect,0.237500X0.237500X-0.300000X0.237500X0.300000X-0.237500X0.300000X-0.237500X-0.300000X0*%
%ADD18R,1.000000X0.600000*%
%ADD19R,0.350000X0.650000*%
%ADD20R,0.600000X1.450000*%
%ADD21R,0.300000X1.450000*%
%ADD22RoundRect,0.237500X-0.237500X0.250000X-0.237500X-0.250000X0.237500X-0.250000X0.237500X0.250000X0*%
%ADD23RoundRect,0.237500X-0.300000X-0.237500X0.300000X-0.237500X0.300000X0.237500X-0.300000X0.237500X0*%
%ADD24RoundRect,0.237500X-0.237500X0.300000X-0.237500X-0.300000X0.237500X-0.300000X0.237500X0.300000X0*%
%ADD25RoundRect,0.237500X0.237500X-0.287500X0.237500X0.287500X-0.237500X0.287500X-0.237500X-0.287500X0*%
%ADD26RoundRect,0.237500X0.237500X-0.250000X0.237500X0.250000X-0.237500X0.250000X-0.237500X-0.250000X0*%
%ADD27RoundRect,0.150000X0.150000X-0.512500X0.150000X0.512500X-0.150000X0.512500X-0.150000X-0.512500X0*%
G04 APERTURE END LIST*
D10*
%TO.C,C7*%
X57262500Y-27800000D03*
X55537500Y-27800000D03*
%TD*%
D11*
%TO.C,D6*%
X16725000Y-23400000D03*
X18475000Y-23400000D03*
%TD*%
D12*
%TO.C,R1*%
X69112500Y-36400000D03*
X67287500Y-36400000D03*
%TD*%
D13*
%TO.C,R9*%
X20287500Y-26400000D03*
X22112500Y-26400000D03*
%TD*%
D14*
%TO.C,D1*%
X75675000Y-29400000D03*
X73925000Y-29400000D03*
%TD*%
D15*
%TO.C,U2*%
X66975000Y-29650000D03*
X68225000Y-29650000D03*
X66975000Y-28800000D03*
X68225000Y-28800000D03*
D16*
X66475000Y-30675000D03*
X66925000Y-30675000D03*
X67375000Y-30675000D03*
X67825000Y-30675000D03*
X68275000Y-30675000D03*
X68725000Y-30675000D03*
X68725000Y-27775000D03*
X68275000Y-27775000D03*
X67825000Y-27775000D03*
X67375000Y-27775000D03*
X66925000Y-27775000D03*
X66475000Y-27775000D03*
%TD*%
D17*
%TO.C,C3*%
X67800000Y-26062500D03*
X67800000Y-24337500D03*
%TD*%
D18*
%TO.C,U1*%
X31925000Y-21800000D03*
X30725000Y-21800000D03*
X31925000Y-22575000D03*
X30725000Y-22575000D03*
D19*
X32300000Y-20637500D03*
X31650000Y-20637500D03*
X31000000Y-20637500D03*
X30350000Y-20637500D03*
X30350000Y-23737500D03*
X31000000Y-23737500D03*
X31650000Y-23737500D03*
X32300000Y-23737500D03*
%TD*%
D10*
%TO.C,C1*%
X28662500Y-24400000D03*
X26937500Y-24400000D03*
%TD*%
D20*
%TO.C,J3*%
X56350000Y-29955000D03*
X57150000Y-29955000D03*
D21*
X58350000Y-29955000D03*
X59350000Y-29955000D03*
X59850000Y-29955000D03*
X60850000Y-29955000D03*
D20*
X62050000Y-29955000D03*
X62850000Y-29955000D03*
X62850000Y-29955000D03*
X62050000Y-29955000D03*
D21*
X61350000Y-29955000D03*
X60350000Y-29955000D03*
X58850000Y-29955000D03*
X57850000Y-29955000D03*
D20*
X57150000Y-29955000D03*
X56350000Y-29955000D03*
%TD*%
D13*
%TO.C,R10*%
X20287500Y-23400000D03*
X22112500Y-23400000D03*
%TD*%
D22*
%TO.C,R5*%
X33800000Y-22087500D03*
X33800000Y-23912500D03*
%TD*%
D13*
%TO.C,R4*%
X73887500Y-27800000D03*
X75712500Y-27800000D03*
%TD*%
%TO.C,R2*%
X61087500Y-27400000D03*
X62912500Y-27400000D03*
%TD*%
D23*
%TO.C,C9*%
X52937500Y-19800000D03*
X54662500Y-19800000D03*
%TD*%
D24*
%TO.C,C4*%
X69600000Y-32537500D03*
X69600000Y-34262500D03*
%TD*%
D11*
%TO.C,D5*%
X16725000Y-26400000D03*
X18475000Y-26400000D03*
%TD*%
D25*
%TO.C,D2*%
X52000000Y-36475000D03*
X52000000Y-34725000D03*
%TD*%
D14*
%TO.C,D3*%
X75675000Y-26200000D03*
X73925000Y-26200000D03*
%TD*%
D26*
%TO.C,R6*%
X52000000Y-33025000D03*
X52000000Y-31200000D03*
%TD*%
D13*
%TO.C,R7*%
X73887500Y-24600000D03*
X75712500Y-24600000D03*
%TD*%
D12*
%TO.C,R3*%
X57312500Y-26200000D03*
X55487500Y-26200000D03*
%TD*%
D24*
%TO.C,C8*%
X53000000Y-25937500D03*
X53000000Y-27662500D03*
%TD*%
D27*
%TO.C,U3*%
X53050000Y-23937500D03*
X54000000Y-23937500D03*
X54950000Y-23937500D03*
X54950000Y-21662500D03*
X53050000Y-21662500D03*
%TD*%
D13*
%TO.C,R8*%
X20287500Y-29400000D03*
X22112500Y-29400000D03*
%TD*%
D10*
%TO.C,C2*%
X31062500Y-19000000D03*
X29337500Y-19000000D03*
%TD*%
D11*
%TO.C,D4*%
X16725000Y-29400000D03*
X18475000Y-29400000D03*
%TD*%
D24*
%TO.C,C6*%
X67200000Y-32937500D03*
X67200000Y-34662500D03*
%TD*%
M02*
