%TF.GenerationSoftware,KiCad,Pcbnew,10.0.1-10.0.1~ubuntu22.04.1*%
%TF.CreationDate,2026-05-03T12:38:40+09:00*%
%TF.ProjectId,jetson-interface-board,6a657473-6f6e-42d6-996e-746572666163,rev?*%
%TF.SameCoordinates,Original*%
%TF.FileFunction,Soldermask,Bot*%
%TF.FilePolarity,Negative*%
%FSLAX46Y46*%
G04 Gerber Fmt 4.6, Leading zero omitted, Abs format (unit mm)*
G04 Created by KiCad (PCBNEW 10.0.1-10.0.1~ubuntu22.04.1) date 2026-05-03 12:38:40*
%MOMM*%
%LPD*%
G01*
G04 APERTURE LIST*
G04 Aperture macros list*
%AMRoundRect*
0 Rectangle with rounded corners*
0 $1 Rounding radius*
0 $2 $3 $4 $5 $6 $7 $8 $9 X,Y pos of 4 corners*
0 Add a 4 corners polygon primitive as box body*
4,1,4,$2,$3,$4,$5,$6,$7,$8,$9,$2,$3,0*
0 Add four circle primitives for the rounded corners*
1,1,$1+$1,$2,$3*
1,1,$1+$1,$4,$5*
1,1,$1+$1,$6,$7*
1,1,$1+$1,$8,$9*
0 Add four rect primitives between the rounded corners*
20,1,$1+$1,$2,$3,$4,$5,0*
20,1,$1+$1,$4,$5,$6,$7,0*
20,1,$1+$1,$6,$7,$8,$9,0*
20,1,$1+$1,$8,$9,$2,$3,0*%
G04 Aperture macros list end*
%ADD10R,1.700000X1.700000*%
%ADD11O,1.700000X1.700000*%
%ADD12RoundRect,0.250000X-0.600000X-0.725000X0.600000X-0.725000X0.600000X0.725000X-0.600000X0.725000X0*%
%ADD13O,1.700000X1.950000*%
%ADD14C,3.200000*%
%ADD15C,0.650000*%
%ADD16O,1.000000X2.100000*%
%ADD17O,1.000000X1.600000*%
G04 APERTURE END LIST*
D10*
%TO.C,J5*%
X68040000Y-16400000D03*
D11*
X65500000Y-16400000D03*
X62960000Y-16400000D03*
X60420000Y-16400000D03*
X57880000Y-16400000D03*
X55340000Y-16400000D03*
X52800000Y-16400000D03*
X50260000Y-16400000D03*
X47720000Y-16400000D03*
X45180000Y-16400000D03*
X42640000Y-16400000D03*
X40100000Y-16400000D03*
X37560000Y-16400000D03*
X35020000Y-16400000D03*
X32480000Y-16400000D03*
X29940000Y-16400000D03*
X27400000Y-16400000D03*
X24860000Y-16400000D03*
%TD*%
D12*
%TO.C,J1*%
X25900000Y-28300000D03*
D13*
X28400000Y-28300000D03*
X30900000Y-28300000D03*
X33400000Y-28300000D03*
%TD*%
D14*
%TO.C,REF\u002A\u002A*%
X19000000Y-34000000D03*
%TD*%
D15*
%TO.C,J3*%
X56710000Y-31400000D03*
X62490000Y-31400000D03*
D16*
X55280000Y-30870000D03*
D17*
X55280000Y-35050000D03*
D16*
X63920000Y-30870000D03*
D17*
X63920000Y-35050000D03*
%TD*%
D14*
%TO.C,REF\u002A\u002A*%
X19000000Y-19000000D03*
%TD*%
D12*
%TO.C,J4*%
X41250000Y-21275000D03*
D13*
X43750000Y-21275000D03*
X46250000Y-21275000D03*
X48750000Y-21275000D03*
%TD*%
D12*
%TO.C,J2*%
X39500000Y-28300000D03*
D13*
X42000000Y-28300000D03*
X44500000Y-28300000D03*
X47000000Y-28300000D03*
%TD*%
D14*
%TO.C,REF\u002A\u002A*%
X74000000Y-19000000D03*
%TD*%
D10*
%TO.C,JP1*%
X36400000Y-20725000D03*
D11*
X36400000Y-23265000D03*
%TD*%
D14*
%TO.C,REF\u002A\u002A*%
X74000000Y-34000000D03*
%TD*%
M02*
