%TF.GenerationSoftware,KiCad,Pcbnew,10.0.1-10.0.1~ubuntu22.04.1*%
%TF.CreationDate,2026-05-03T12:38:40+09:00*%
%TF.ProjectId,jetson-interface-board,6a657473-6f6e-42d6-996e-746572666163,rev?*%
%TF.SameCoordinates,Original*%
%TF.FileFunction,Copper,L2,Bot*%
%TF.FilePolarity,Positive*%
%FSLAX46Y46*%
G04 Gerber Fmt 4.6, Leading zero omitted, Abs format (unit mm)*
G04 Created by KiCad (PCBNEW 10.0.1-10.0.1~ubuntu22.04.1) date 2026-05-03 12:38:40*
%MOMM*%
%LPD*%
G01*
G04 APERTURE LIST*
G04 Aperture macros list*
%AMRoundRect*
0 Rectangle with rounded corners*
0 $1 Rounding radius*
0 $2 $3 $4 $5 $6 $7 $8 $9 X,Y pos of 4 corners*
0 Add a 4 corners polygon primitive as box body*
4,1,4,$2,$3,$4,$5,$6,$7,$8,$9,$2,$3,0*
0 Add four circle primitives for the rounded corners*
1,1,$1+$1,$2,$3*
1,1,$1+$1,$4,$5*
1,1,$1+$1,$6,$7*
1,1,$1+$1,$8,$9*
0 Add four rect primitives between the rounded corners*
20,1,$1+$1,$2,$3,$4,$5,0*
20,1,$1+$1,$4,$5,$6,$7,0*
20,1,$1+$1,$6,$7,$8,$9,0*
20,1,$1+$1,$8,$9,$2,$3,0*%
G04 Aperture macros list end*
%TA.AperFunction,ComponentPad*%
%ADD10R,1.700000X1.700000*%
%TD*%
%TA.AperFunction,ComponentPad*%
%ADD11O,1.700000X1.700000*%
%TD*%
%TA.AperFunction,ComponentPad*%
%ADD12RoundRect,0.250000X-0.600000X-0.725000X0.600000X-0.725000X0.600000X0.725000X-0.600000X0.725000X0*%
%TD*%
%TA.AperFunction,ComponentPad*%
%ADD13O,1.700000X1.950000*%
%TD*%
%TA.AperFunction,HeatsinkPad*%
%ADD14O,1.000000X2.100000*%
%TD*%
%TA.AperFunction,HeatsinkPad*%
%ADD15O,1.000000X1.600000*%
%TD*%
%TA.AperFunction,ViaPad*%
%ADD16C,0.800000*%
%TD*%
%TA.AperFunction,ViaPad*%
%ADD17C,0.600000*%
%TD*%
%TA.AperFunction,Conductor*%
%ADD18C,0.250000*%
%TD*%
%TA.AperFunction,Conductor*%
%ADD19C,0.300000*%
%TD*%
%TA.AperFunction,Conductor*%
%ADD20C,0.200000*%
%TD*%
G04 APERTURE END LIST*
D10*
%TO.P,J5,1,Pin_1_1*%
%TO.N,unconnected-(J5-Pin_1-Pad1)*%
X68040000Y-16400000D03*
D11*
%TO.P,J5,2,Pin_2_2*%
%TO.N,unconnected-(J5-Pin_2-Pad2)*%
X65500000Y-16400000D03*
%TO.P,J5,3,Pin_3_3*%
%TO.N,UART_RX*%
X62960000Y-16400000D03*
%TO.P,J5,4,Pin_4_4*%
%TO.N,UART_TX*%
X60420000Y-16400000D03*
%TO.P,J5,5,Pin_5_5*%
%TO.N,unconnected-(J5-Pin_5-Pad5)*%
X57880000Y-16400000D03*
%TO.P,J5,6,Pin_6_6*%
%TO.N,unconnected-(J5-Pin_6-Pad6)*%
X55340000Y-16400000D03*
%TO.P,J5,7,Pin_7_7*%
%TO.N,GNDD*%
X52800000Y-16400000D03*
%TO.P,J5,8,Pin_8_8*%
%TO.N,unconnected-(J5-Pin_8-Pad8)*%
X50260000Y-16400000D03*
%TO.P,J5,9,Pin_9_9*%
%TO.N,GNDD*%
X47720000Y-16400000D03*
%TO.P,J5,10,Pin_10_10*%
%TO.N,unconnected-(J5-Pin_10-Pad10)*%
X45180000Y-16400000D03*
%TO.P,J5,11,Pin_11_11*%
%TO.N,GNDD*%
X42640000Y-16400000D03*
%TO.P,J5,12,Pin_12_12*%
%TO.N,unconnected-(J5-Pin_12-Pad12)*%
X40100000Y-16400000D03*
%TO.P,J5,13,Pin_13_13*%
%TO.N,unconnected-(J5-Pin_13-Pad13)*%
X37560000Y-16400000D03*
%TO.P,J5,14,Pin_14_14*%
%TO.N,unconnected-(J5-Pin_14-Pad14)*%
X35020000Y-16400000D03*
%TO.P,J5,15,Pin_15_15*%
%TO.N,CAN_TX*%
X32480000Y-16400000D03*
%TO.P,J5,16,Pin_16_16*%
%TO.N,CAN_RX*%
X29940000Y-16400000D03*
%TO.P,J5,17,Pin_17_17*%
%TO.N,GNDD*%
X27400000Y-16400000D03*
%TO.P,J5,18,Pin_18_18*%
%TO.N,+3.3V*%
X24860000Y-16400000D03*
%TD*%
D12*
%TO.P,J1,1,Pin_1_1*%
%TO.N,GNDD*%
X25900000Y-28300000D03*
D13*
%TO.P,J1,2,Pin_2_2*%
%TO.N,CANL*%
X28400000Y-28300000D03*
%TO.P,J1,3,Pin_3_3*%
%TO.N,+5VP*%
X30900000Y-28300000D03*
%TO.P,J1,4,Pin_4_4*%
%TO.N,CANH*%
X33400000Y-28300000D03*
%TD*%
D14*
%TO.P,J3,S1,SHIELD_S1*%
%TO.N,unconnected-(J3-SHIELD-PadS1)_2*%
X55280000Y-30870000D03*
D15*
%TO.N,unconnected-(J3-SHIELD-PadS1)_3*%
X55280000Y-35050000D03*
D14*
%TO.N,unconnected-(J3-SHIELD-PadS1)_1*%
X63920000Y-30870000D03*
D15*
%TO.N,unconnected-(J3-SHIELD-PadS1)*%
X63920000Y-35050000D03*
%TD*%
D12*
%TO.P,J4,1,Pin_1_1*%
%TO.N,GNDD*%
X41250000Y-21275000D03*
D13*
%TO.P,J4,2,Pin_2_2*%
%TO.N,unconnected-(J4-Pin_2-Pad2)*%
X43750000Y-21275000D03*
%TO.P,J4,3,Pin_3_3*%
%TO.N,+5V*%
X46250000Y-21275000D03*
%TO.P,J4,4,Pin_4_4*%
%TO.N,unconnected-(J4-Pin_4-Pad4)*%
X48750000Y-21275000D03*
%TD*%
D12*
%TO.P,J2,1,Pin_1_1*%
%TO.N,GNDD*%
X39500000Y-28300000D03*
D13*
%TO.P,J2,2,Pin_2_2*%
%TO.N,CANL*%
X42000000Y-28300000D03*
%TO.P,J2,3,Pin_3_3*%
%TO.N,+5VP*%
X44500000Y-28300000D03*
%TO.P,J2,4,Pin_4_4*%
%TO.N,CANH*%
X47000000Y-28300000D03*
%TD*%
D10*
%TO.P,JP1,1,A_1*%
%TO.N,Net-(JP1-A)*%
X36400000Y-20725000D03*
D11*
%TO.P,JP1,2,B_2*%
%TO.N,CANH*%
X36400000Y-23265000D03*
%TD*%
D16*
%TO.N,GNDD*%
X77000000Y-31000000D03*
D17*
X48000000Y-37000000D03*
X54400000Y-37200000D03*
X74800000Y-25200000D03*
X32600000Y-24600000D03*
X34600000Y-26800000D03*
X33600000Y-20800000D03*
X23800000Y-21600000D03*
X59100000Y-17300000D03*
X29800000Y-25200000D03*
D16*
X16000000Y-22000000D03*
D17*
X53800000Y-30600000D03*
X68800000Y-31600000D03*
X52000000Y-18800000D03*
X23000000Y-16000000D03*
X69400000Y-24600000D03*
X56000000Y-25000000D03*
X70800000Y-31600000D03*
D16*
X77000000Y-16000000D03*
D17*
X52000000Y-25000000D03*
D16*
X77000000Y-37000000D03*
D17*
X33800000Y-17600000D03*
X56400000Y-28600000D03*
X21800000Y-22200000D03*
X70200000Y-35600000D03*
X68200000Y-34600000D03*
X58400000Y-31800000D03*
X34800000Y-22800000D03*
X63000000Y-28400000D03*
D16*
X16000000Y-37000000D03*
D17*
X64800000Y-33000000D03*
X70400000Y-15800000D03*
X51800000Y-21000000D03*
X69800000Y-29800000D03*
X74800000Y-28600000D03*
X66400000Y-24600000D03*
X65400000Y-31000000D03*
X61700000Y-17300000D03*
D16*
X16000000Y-31000000D03*
D17*
X54200000Y-26400000D03*
X29200000Y-23200000D03*
X66200000Y-34600000D03*
X69600000Y-22800000D03*
X23000000Y-37000000D03*
X33000000Y-37000000D03*
X29200000Y-20000000D03*
X67600000Y-22400000D03*
X59200000Y-27800000D03*
X64600000Y-20400000D03*
X54800000Y-28600000D03*
X56200000Y-32600000D03*
X42000000Y-37000000D03*
X74800000Y-27000000D03*
X64800000Y-37200000D03*
X65000000Y-27200000D03*
D16*
X16000000Y-16000000D03*
D17*
X23600000Y-23600000D03*
D16*
X77000000Y-22000000D03*
D17*
X64600000Y-25600000D03*
%TO.N,+5V*%
X22800000Y-25800000D03*
X31200000Y-18400000D03*
%TO.N,3.3V_FT*%
X67800000Y-32800000D03*
X67200000Y-25400000D03*
X75600000Y-24000000D03*
%TO.N,VBUS*%
X62000000Y-28600000D03*
X57600000Y-28600000D03*
X69099238Y-32850708D03*
%TO.N,CANL*%
X30600000Y-26000000D03*
X33800000Y-24600000D03*
%TD*%
%TO.N,+5V*%
D18*
X24000000Y-18400000D02*
X31200000Y-18400000D01*
X22800000Y-25800000D02*
X22800000Y-19600000D01*
X22800000Y-19600000D02*
X24000000Y-18400000D01*
D19*
X46250000Y-21275000D02*
X43375000Y-18400000D01*
X43375000Y-18400000D02*
X31200000Y-18400000D01*
%TO.N,3.3V_FT*%
D18*
X75400000Y-23800000D02*
X68800000Y-23800000D01*
X75600000Y-24000000D02*
X75400000Y-23800000D01*
D20*
X67000000Y-25400000D02*
X67200000Y-25400000D01*
D18*
X68800000Y-23800000D02*
X67200000Y-25400000D01*
D20*
X65800000Y-26600000D02*
X67000000Y-25400000D01*
X65800000Y-29600000D02*
X65800000Y-26600000D01*
X67800000Y-31600000D02*
X65800000Y-29600000D01*
X67800000Y-32800000D02*
X67800000Y-31600000D01*
%TO.N,VBUS*%
D18*
X69099238Y-32850708D02*
X69099238Y-33300762D01*
X58400000Y-33800000D02*
X57600000Y-33000000D01*
X68600000Y-33800000D02*
X58400000Y-33800000D01*
X69099238Y-33300762D02*
X68600000Y-33800000D01*
D19*
X62000000Y-28600000D02*
X57600000Y-28600000D01*
D18*
X57600000Y-33000000D02*
X57600000Y-28600000D01*
%TO.N,CANH*%
X45300000Y-26600000D02*
X47000000Y-28300000D01*
X36400000Y-23265000D02*
X37865000Y-23265000D01*
X41200000Y-26600000D02*
X45300000Y-26600000D01*
X37865000Y-23265000D02*
X41200000Y-26600000D01*
%TO.N,CANL*%
X38300000Y-24600000D02*
X42000000Y-28300000D01*
X33000000Y-25400000D02*
X31200000Y-25400000D01*
X33800000Y-24600000D02*
X33000000Y-25400000D01*
X31200000Y-25400000D02*
X30600000Y-26000000D01*
X33800000Y-24600000D02*
X38300000Y-24600000D01*
%TD*%
%TA.AperFunction,Conductor*%
%TO.N,GNDD*%
G36*
X24363921Y-15329496D02*
G01*
X24392917Y-15399500D01*
X24363921Y-15469504D01*
X24343419Y-15485235D01*
X24290620Y-15515719D01*
X24214979Y-15559390D01*
X24019387Y-15754982D01*
X23881091Y-15994517D01*
X23848333Y-16116773D01*
X23809500Y-16261699D01*
X23809500Y-16538301D01*
X23848333Y-16683227D01*
X23881091Y-16805482D01*
X24019387Y-17045017D01*
X24019389Y-17045019D01*
X24019391Y-17045022D01*
X24214978Y-17240609D01*
X24214980Y-17240610D01*
X24214982Y-17240612D01*
X24454518Y-17378908D01*
X24454516Y-17378908D01*
X24454520Y-17378909D01*
X24454522Y-17378910D01*
X24721699Y-17450500D01*
X24721701Y-17450500D01*
X24998299Y-17450500D01*
X24998301Y-17450500D01*
X25265478Y-17378910D01*
X25265480Y-17378908D01*
X25265482Y-17378908D01*
X25505017Y-17240612D01*
X25505017Y-17240611D01*
X25505022Y-17240609D01*
X25700609Y-17045022D01*
X25838910Y-16805478D01*
X25910500Y-16538301D01*
X25910500Y-16300544D01*
X26900000Y-16300544D01*
X26900000Y-16499456D01*
X26976120Y-16683227D01*
X27116773Y-16823880D01*
X27300544Y-16900000D01*
X27499456Y-16900000D01*
X27683227Y-16823880D01*
X27823880Y-16683227D01*
X27900000Y-16499456D01*
X27900000Y-16300544D01*
X27823880Y-16116773D01*
X27683227Y-15976120D01*
X27499456Y-15900000D01*
X27300544Y-15900000D01*
X27116773Y-15976120D01*
X26976120Y-16116773D01*
X26900000Y-16300544D01*
X25910500Y-16300544D01*
X25910500Y-16261699D01*
X25838910Y-15994522D01*
X25838908Y-15994519D01*
X25838908Y-15994517D01*
X25700612Y-15754982D01*
X25700610Y-15754980D01*
X25700609Y-15754978D01*
X25505022Y-15559391D01*
X25376582Y-15485236D01*
X25330456Y-15425123D01*
X25340346Y-15350000D01*
X25400460Y-15303873D01*
X25426083Y-15300500D01*
X29373917Y-15300500D01*
X29443921Y-15329496D01*
X29472917Y-15399500D01*
X29443921Y-15469504D01*
X29423419Y-15485235D01*
X29370620Y-15515719D01*
X29294979Y-15559390D01*
X29099387Y-15754982D01*
X28961091Y-15994517D01*
X28928333Y-16116773D01*
X28889500Y-16261699D01*
X28889500Y-16538301D01*
X28928333Y-16683227D01*
X28961091Y-16805482D01*
X29099387Y-17045017D01*
X29099389Y-17045019D01*
X29099391Y-17045022D01*
X29294978Y-17240609D01*
X29294980Y-17240610D01*
X29294982Y-17240612D01*
X29534518Y-17378908D01*
X29534516Y-17378908D01*
X29534520Y-17378909D01*
X29534522Y-17378910D01*
X29801699Y-17450500D01*
X29801701Y-17450500D01*
X30078299Y-17450500D01*
X30078301Y-17450500D01*
X30345478Y-17378910D01*
X30345480Y-17378908D01*
X30345482Y-17378908D01*
X30585017Y-17240612D01*
X30585017Y-17240611D01*
X30585022Y-17240609D01*
X30780609Y-17045022D01*
X30918910Y-16805478D01*
X30990500Y-16538301D01*
X30990500Y-16261699D01*
X30918910Y-15994522D01*
X30918908Y-15994519D01*
X30918908Y-15994517D01*
X30780612Y-15754982D01*
X30780610Y-15754980D01*
X30780609Y-15754978D01*
X30585022Y-15559391D01*
X30456582Y-15485236D01*
X30410456Y-15425123D01*
X30420346Y-15350000D01*
X30480460Y-15303873D01*
X30506083Y-15300500D01*
X31913917Y-15300500D01*
X31983921Y-15329496D01*
X32012917Y-15399500D01*
X31983921Y-15469504D01*
X31963419Y-15485235D01*
X31910620Y-15515719D01*
X31834979Y-15559390D01*
X31639387Y-15754982D01*
X31501091Y-15994517D01*
X31468333Y-16116773D01*
X31429500Y-16261699D01*
X31429500Y-16538301D01*
X31468333Y-16683227D01*
X31501091Y-16805482D01*
X31639387Y-17045017D01*
X31639389Y-17045019D01*
X31639391Y-17045022D01*
X31834978Y-17240609D01*
X31834980Y-17240610D01*
X31834982Y-17240612D01*
X32074518Y-17378908D01*
X32074516Y-17378908D01*
X32074520Y-17378909D01*
X32074522Y-17378910D01*
X32341699Y-17450500D01*
X32341701Y-17450500D01*
X32618299Y-17450500D01*
X32618301Y-17450500D01*
X32885478Y-17378910D01*
X32885480Y-17378908D01*
X32885482Y-17378908D01*
X33125017Y-17240612D01*
X33125017Y-17240611D01*
X33125022Y-17240609D01*
X33320609Y-17045022D01*
X33458910Y-16805478D01*
X33530500Y-16538301D01*
X33530500Y-16261699D01*
X33458910Y-15994522D01*
X33458908Y-15994519D01*
X33458908Y-15994517D01*
X33320612Y-15754982D01*
X33320610Y-15754980D01*
X33320609Y-15754978D01*
X33125022Y-15559391D01*
X32996582Y-15485236D01*
X32950456Y-15425123D01*
X32960346Y-15350000D01*
X33020460Y-15303873D01*
X33046083Y-15300500D01*
X34453917Y-15300500D01*
X34523921Y-15329496D01*
X34552917Y-15399500D01*
X34523921Y-15469504D01*
X34503419Y-15485235D01*
X34450620Y-15515719D01*
X34374979Y-15559390D01*
X34179387Y-15754982D01*
X34041091Y-15994517D01*
X34008333Y-16116773D01*
X33969500Y-16261699D01*
X33969500Y-16538301D01*
X34008333Y-16683227D01*
X34041091Y-16805482D01*
X34179387Y-17045017D01*
X34179389Y-17045019D01*
X34179391Y-17045022D01*
X34374978Y-17240609D01*
X34374980Y-17240610D01*
X34374982Y-17240612D01*
X34614518Y-17378908D01*
X34614516Y-17378908D01*
X34614520Y-17378909D01*
X34614522Y-17378910D01*
X34881699Y-17450500D01*
X34881701Y-17450500D01*
X35158299Y-17450500D01*
X35158301Y-17450500D01*
X35425478Y-17378910D01*
X35425480Y-17378908D01*
X35425482Y-17378908D01*
X35665017Y-17240612D01*
X35665017Y-17240611D01*
X35665022Y-17240609D01*
X35860609Y-17045022D01*
X35998910Y-16805478D01*
X36070500Y-16538301D01*
X36070500Y-16261699D01*
X35998910Y-15994522D01*
X35998908Y-15994519D01*
X35998908Y-15994517D01*
X35860612Y-15754982D01*
X35860610Y-15754980D01*
X35860609Y-15754978D01*
X35665022Y-15559391D01*
X35536582Y-15485236D01*
X35490456Y-15425123D01*
X35500346Y-15350000D01*
X35560460Y-15303873D01*
X35586083Y-15300500D01*
X36993917Y-15300500D01*
X37063921Y-15329496D01*
X37092917Y-15399500D01*
X37063921Y-15469504D01*
X37043419Y-15485235D01*
X36990620Y-15515719D01*
X36914979Y-15559390D01*
X36719387Y-15754982D01*
X36581091Y-15994517D01*
X36548333Y-16116773D01*
X36509500Y-16261699D01*
X36509500Y-16538301D01*
X36548333Y-16683227D01*
X36581091Y-16805482D01*
X36719387Y-17045017D01*
X36719389Y-17045019D01*
X36719391Y-17045022D01*
X36914978Y-17240609D01*
X36914980Y-17240610D01*
X36914982Y-17240612D01*
X37154518Y-17378908D01*
X37154516Y-17378908D01*
X37154520Y-17378909D01*
X37154522Y-17378910D01*
X37421699Y-17450500D01*
X37421701Y-17450500D01*
X37698299Y-17450500D01*
X37698301Y-17450500D01*
X37965478Y-17378910D01*
X37965480Y-17378908D01*
X37965482Y-17378908D01*
X38205017Y-17240612D01*
X38205017Y-17240611D01*
X38205022Y-17240609D01*
X38400609Y-17045022D01*
X38538910Y-16805478D01*
X38610500Y-16538301D01*
X38610500Y-16261699D01*
X38538910Y-15994522D01*
X38538908Y-15994519D01*
X38538908Y-15994517D01*
X38400612Y-15754982D01*
X38400610Y-15754980D01*
X38400609Y-15754978D01*
X38205022Y-15559391D01*
X38076582Y-15485236D01*
X38030456Y-15425123D01*
X38040346Y-15350000D01*
X38100460Y-15303873D01*
X38126083Y-15300500D01*
X39533917Y-15300500D01*
X39603921Y-15329496D01*
X39632917Y-15399500D01*
X39603921Y-15469504D01*
X39583419Y-15485235D01*
X39530620Y-15515719D01*
X39454979Y-15559390D01*
X39259387Y-15754982D01*
X39121091Y-15994517D01*
X39088333Y-16116773D01*
X39049500Y-16261699D01*
X39049500Y-16538301D01*
X39088333Y-16683227D01*
X39121091Y-16805482D01*
X39259387Y-17045017D01*
X39259389Y-17045019D01*
X39259391Y-17045022D01*
X39454978Y-17240609D01*
X39454980Y-17240610D01*
X39454982Y-17240612D01*
X39694518Y-17378908D01*
X39694516Y-17378908D01*
X39694520Y-17378909D01*
X39694522Y-17378910D01*
X39961699Y-17450500D01*
X39961701Y-17450500D01*
X40238299Y-17450500D01*
X40238301Y-17450500D01*
X40505478Y-17378910D01*
X40505480Y-17378908D01*
X40505482Y-17378908D01*
X40745017Y-17240612D01*
X40745017Y-17240611D01*
X40745022Y-17240609D01*
X40940609Y-17045022D01*
X41078910Y-16805478D01*
X41150500Y-16538301D01*
X41150500Y-16300544D01*
X42140000Y-16300544D01*
X42140000Y-16499456D01*
X42216120Y-16683227D01*
X42356773Y-16823880D01*
X42540544Y-16900000D01*
X42739456Y-16900000D01*
X42923227Y-16823880D01*
X43063880Y-16683227D01*
X43140000Y-16499456D01*
X43140000Y-16300544D01*
X43063880Y-16116773D01*
X42923227Y-15976120D01*
X42739456Y-15900000D01*
X42540544Y-15900000D01*
X42356773Y-15976120D01*
X42216120Y-16116773D01*
X42140000Y-16300544D01*
X41150500Y-16300544D01*
X41150500Y-16261699D01*
X41078910Y-15994522D01*
X41078908Y-15994519D01*
X41078908Y-15994517D01*
X40940612Y-15754982D01*
X40940610Y-15754980D01*
X40940609Y-15754978D01*
X40745022Y-15559391D01*
X40616582Y-15485236D01*
X40570456Y-15425123D01*
X40580346Y-15350000D01*
X40640460Y-15303873D01*
X40666083Y-15300500D01*
X44613917Y-15300500D01*
X44683921Y-15329496D01*
X44712917Y-15399500D01*
X44683921Y-15469504D01*
X44663419Y-15485235D01*
X44610620Y-15515719D01*
X44534979Y-15559390D01*
X44339387Y-15754982D01*
X44201091Y-15994517D01*
X44168333Y-16116773D01*
X44129500Y-16261699D01*
X44129500Y-16538301D01*
X44168333Y-16683227D01*
X44201091Y-16805482D01*
X44339387Y-17045017D01*
X44339389Y-17045019D01*
X44339391Y-17045022D01*
X44534978Y-17240609D01*
X44534980Y-17240610D01*
X44534982Y-17240612D01*
X44774518Y-17378908D01*
X44774516Y-17378908D01*
X44774520Y-17378909D01*
X44774522Y-17378910D01*
X45041699Y-17450500D01*
X45041701Y-17450500D01*
X45318299Y-17450500D01*
X45318301Y-17450500D01*
X45585478Y-17378910D01*
X45585480Y-17378908D01*
X45585482Y-17378908D01*
X45825017Y-17240612D01*
X45825017Y-17240611D01*
X45825022Y-17240609D01*
X46020609Y-17045022D01*
X46158910Y-16805478D01*
X46230500Y-16538301D01*
X46230500Y-16300544D01*
X47220000Y-16300544D01*
X47220000Y-16499456D01*
X47296120Y-16683227D01*
X47436773Y-16823880D01*
X47620544Y-16900000D01*
X47819456Y-16900000D01*
X48003227Y-16823880D01*
X48143880Y-16683227D01*
X48220000Y-16499456D01*
X48220000Y-16300544D01*
X48143880Y-16116773D01*
X48003227Y-15976120D01*
X47819456Y-15900000D01*
X47620544Y-15900000D01*
X47436773Y-15976120D01*
X47296120Y-16116773D01*
X47220000Y-16300544D01*
X46230500Y-16300544D01*
X46230500Y-16261699D01*
X46158910Y-15994522D01*
X46158908Y-15994519D01*
X46158908Y-15994517D01*
X46020612Y-15754982D01*
X46020610Y-15754980D01*
X46020609Y-15754978D01*
X45825022Y-15559391D01*
X45696582Y-15485236D01*
X45650456Y-15425123D01*
X45660346Y-15350000D01*
X45720460Y-15303873D01*
X45746083Y-15300500D01*
X49693917Y-15300500D01*
X49763921Y-15329496D01*
X49792917Y-15399500D01*
X49763921Y-15469504D01*
X49743419Y-15485235D01*
X49690620Y-15515719D01*
X49614979Y-15559390D01*
X49419387Y-15754982D01*
X49281091Y-15994517D01*
X49248333Y-16116773D01*
X49209500Y-16261699D01*
X49209500Y-16538301D01*
X49248333Y-16683227D01*
X49281091Y-16805482D01*
X49419387Y-17045017D01*
X49419389Y-17045019D01*
X49419391Y-17045022D01*
X49614978Y-17240609D01*
X49614980Y-17240610D01*
X49614982Y-17240612D01*
X49854518Y-17378908D01*
X49854516Y-17378908D01*
X49854520Y-17378909D01*
X49854522Y-17378910D01*
X50121699Y-17450500D01*
X50121701Y-17450500D01*
X50398299Y-17450500D01*
X50398301Y-17450500D01*
X50665478Y-17378910D01*
X50665480Y-17378908D01*
X50665482Y-17378908D01*
X50905017Y-17240612D01*
X50905017Y-17240611D01*
X50905022Y-17240609D01*
X51100609Y-17045022D01*
X51238910Y-16805478D01*
X51310500Y-16538301D01*
X51310500Y-16300544D01*
X52300000Y-16300544D01*
X52300000Y-16499456D01*
X52376120Y-16683227D01*
X52516773Y-16823880D01*
X52700544Y-16900000D01*
X52899456Y-16900000D01*
X53083227Y-16823880D01*
X53223880Y-16683227D01*
X53300000Y-16499456D01*
X53300000Y-16300544D01*
X53223880Y-16116773D01*
X53083227Y-15976120D01*
X52899456Y-15900000D01*
X52700544Y-15900000D01*
X52516773Y-15976120D01*
X52376120Y-16116773D01*
X52300000Y-16300544D01*
X51310500Y-16300544D01*
X51310500Y-16261699D01*
X51238910Y-15994522D01*
X51238908Y-15994519D01*
X51238908Y-15994517D01*
X51100612Y-15754982D01*
X51100610Y-15754980D01*
X51100609Y-15754978D01*
X50905022Y-15559391D01*
X50776582Y-15485236D01*
X50730456Y-15425123D01*
X50740346Y-15350000D01*
X50800460Y-15303873D01*
X50826083Y-15300500D01*
X54773917Y-15300500D01*
X54843921Y-15329496D01*
X54872917Y-15399500D01*
X54843921Y-15469504D01*
X54823419Y-15485235D01*
X54770620Y-15515719D01*
X54694979Y-15559390D01*
X54499387Y-15754982D01*
X54361091Y-15994517D01*
X54328333Y-16116773D01*
X54289500Y-16261699D01*
X54289500Y-16538301D01*
X54328333Y-16683227D01*
X54361091Y-16805482D01*
X54499387Y-17045017D01*
X54499389Y-17045019D01*
X54499391Y-17045022D01*
X54694978Y-17240609D01*
X54694980Y-17240610D01*
X54694982Y-17240612D01*
X54934518Y-17378908D01*
X54934516Y-17378908D01*
X54934520Y-17378909D01*
X54934522Y-17378910D01*
X55201699Y-17450500D01*
X55201701Y-17450500D01*
X55478299Y-17450500D01*
X55478301Y-17450500D01*
X55745478Y-17378910D01*
X55745480Y-17378908D01*
X55745482Y-17378908D01*
X55985017Y-17240612D01*
X55985017Y-17240611D01*
X55985022Y-17240609D01*
X56180609Y-17045022D01*
X56318910Y-16805478D01*
X56390500Y-16538301D01*
X56390500Y-16261699D01*
X56318910Y-15994522D01*
X56318908Y-15994519D01*
X56318908Y-15994517D01*
X56180612Y-15754982D01*
X56180610Y-15754980D01*
X56180609Y-15754978D01*
X55985022Y-15559391D01*
X55856582Y-15485236D01*
X55810456Y-15425123D01*
X55820346Y-15350000D01*
X55880460Y-15303873D01*
X55906083Y-15300500D01*
X57313917Y-15300500D01*
X57383921Y-15329496D01*
X57412917Y-15399500D01*
X57383921Y-15469504D01*
X57363419Y-15485235D01*
X57310620Y-15515719D01*
X57234979Y-15559390D01*
X57039387Y-15754982D01*
X56901091Y-15994517D01*
X56868333Y-16116773D01*
X56829500Y-16261699D01*
X56829500Y-16538301D01*
X56868333Y-16683227D01*
X56901091Y-16805482D01*
X57039387Y-17045017D01*
X57039389Y-17045019D01*
X57039391Y-17045022D01*
X57234978Y-17240609D01*
X57234980Y-17240610D01*
X57234982Y-17240612D01*
X57474518Y-17378908D01*
X57474516Y-17378908D01*
X57474520Y-17378909D01*
X57474522Y-17378910D01*
X57741699Y-17450500D01*
X57741701Y-17450500D01*
X58018299Y-17450500D01*
X58018301Y-17450500D01*
X58285478Y-17378910D01*
X58285480Y-17378908D01*
X58285482Y-17378908D01*
X58525017Y-17240612D01*
X58525017Y-17240611D01*
X58525022Y-17240609D01*
X58720609Y-17045022D01*
X58858910Y-16805478D01*
X58930500Y-16538301D01*
X58930500Y-16261699D01*
X58858910Y-15994522D01*
X58858908Y-15994519D01*
X58858908Y-15994517D01*
X58720612Y-15754982D01*
X58720610Y-15754980D01*
X58720609Y-15754978D01*
X58525022Y-15559391D01*
X58396582Y-15485236D01*
X58350456Y-15425123D01*
X58360346Y-15350000D01*
X58420460Y-15303873D01*
X58446083Y-15300500D01*
X59853917Y-15300500D01*
X59923921Y-15329496D01*
X59952917Y-15399500D01*
X59923921Y-15469504D01*
X59903419Y-15485235D01*
X59850620Y-15515719D01*
X59774979Y-15559390D01*
X59579387Y-15754982D01*
X59441091Y-15994517D01*
X59408333Y-16116773D01*
X59369500Y-16261699D01*
X59369500Y-16538301D01*
X59408333Y-16683227D01*
X59441091Y-16805482D01*
X59579387Y-17045017D01*
X59579389Y-17045019D01*
X59579391Y-17045022D01*
X59774978Y-17240609D01*
X59774980Y-17240610D01*
X59774982Y-17240612D01*
X60014518Y-17378908D01*
X60014516Y-17378908D01*
X60014520Y-17378909D01*
X60014522Y-17378910D01*
X60281699Y-17450500D01*
X60281701Y-17450500D01*
X60558299Y-17450500D01*
X60558301Y-17450500D01*
X60825478Y-17378910D01*
X60825480Y-17378908D01*
X60825482Y-17378908D01*
X61065017Y-17240612D01*
X61065017Y-17240611D01*
X61065022Y-17240609D01*
X61260609Y-17045022D01*
X61398910Y-16805478D01*
X61470500Y-16538301D01*
X61470500Y-16261699D01*
X61398910Y-15994522D01*
X61398908Y-15994519D01*
X61398908Y-15994517D01*
X61260612Y-15754982D01*
X61260610Y-15754980D01*
X61260609Y-15754978D01*
X61065022Y-15559391D01*
X60936582Y-15485236D01*
X60890456Y-15425123D01*
X60900346Y-15350000D01*
X60960460Y-15303873D01*
X60986083Y-15300500D01*
X62393917Y-15300500D01*
X62463921Y-15329496D01*
X62492917Y-15399500D01*
X62463921Y-15469504D01*
X62443419Y-15485235D01*
X62390620Y-15515719D01*
X62314979Y-15559390D01*
X62119387Y-15754982D01*
X61981091Y-15994517D01*
X61948333Y-16116773D01*
X61909500Y-16261699D01*
X61909500Y-16538301D01*
X61948333Y-16683227D01*
X61981091Y-16805482D01*
X62119387Y-17045017D01*
X62119389Y-17045019D01*
X62119391Y-17045022D01*
X62314978Y-17240609D01*
X62314980Y-17240610D01*
X62314982Y-17240612D01*
X62554518Y-17378908D01*
X62554516Y-17378908D01*
X62554520Y-17378909D01*
X62554522Y-17378910D01*
X62821699Y-17450500D01*
X62821701Y-17450500D01*
X63098299Y-17450500D01*
X63098301Y-17450500D01*
X63365478Y-17378910D01*
X63365480Y-17378908D01*
X63365482Y-17378908D01*
X63605017Y-17240612D01*
X63605017Y-17240611D01*
X63605022Y-17240609D01*
X63800609Y-17045022D01*
X63938910Y-16805478D01*
X64010500Y-16538301D01*
X64010500Y-16261699D01*
X63938910Y-15994522D01*
X63938908Y-15994519D01*
X63938908Y-15994517D01*
X63800612Y-15754982D01*
X63800610Y-15754980D01*
X63800609Y-15754978D01*
X63605022Y-15559391D01*
X63476582Y-15485236D01*
X63430456Y-15425123D01*
X63440346Y-15350000D01*
X63500460Y-15303873D01*
X63526083Y-15300500D01*
X64933917Y-15300500D01*
X65003921Y-15329496D01*
X65032917Y-15399500D01*
X65003921Y-15469504D01*
X64983419Y-15485235D01*
X64930620Y-15515719D01*
X64854979Y-15559390D01*
X64659387Y-15754982D01*
X64521091Y-15994517D01*
X64488333Y-16116773D01*
X64449500Y-16261699D01*
X64449500Y-16538301D01*
X64488333Y-16683227D01*
X64521091Y-16805482D01*
X64659387Y-17045017D01*
X64659389Y-17045019D01*
X64659391Y-17045022D01*
X64854978Y-17240609D01*
X64854980Y-17240610D01*
X64854982Y-17240612D01*
X65094518Y-17378908D01*
X65094516Y-17378908D01*
X65094520Y-17378909D01*
X65094522Y-17378910D01*
X65361699Y-17450500D01*
X65361701Y-17450500D01*
X65638299Y-17450500D01*
X65638301Y-17450500D01*
X65905478Y-17378910D01*
X65905480Y-17378908D01*
X65905482Y-17378908D01*
X66145017Y-17240612D01*
X66145017Y-17240611D01*
X66145022Y-17240609D01*
X66340609Y-17045022D01*
X66478910Y-16805478D01*
X66550500Y-16538301D01*
X66550500Y-16261699D01*
X66478910Y-15994522D01*
X66478908Y-15994519D01*
X66478908Y-15994517D01*
X66340612Y-15754982D01*
X66340610Y-15754980D01*
X66340609Y-15754978D01*
X66145022Y-15559391D01*
X66016582Y-15485236D01*
X65970456Y-15425123D01*
X65980346Y-15350000D01*
X66040460Y-15303873D01*
X66066083Y-15300500D01*
X66930356Y-15300500D01*
X67000360Y-15329496D01*
X67029356Y-15399500D01*
X67012671Y-15454500D01*
X67001133Y-15471769D01*
X67001132Y-15471772D01*
X66989501Y-15530241D01*
X66989500Y-15530253D01*
X66989500Y-17269746D01*
X66989501Y-17269758D01*
X67001132Y-17328227D01*
X67001133Y-17328231D01*
X67045448Y-17394552D01*
X67111769Y-17438867D01*
X67156231Y-17447711D01*
X67170241Y-17450498D01*
X67170246Y-17450498D01*
X67170252Y-17450500D01*
X67170253Y-17450500D01*
X68909747Y-17450500D01*
X68909748Y-17450500D01*
X68968231Y-17438867D01*
X69034552Y-17394552D01*
X69078867Y-17328231D01*
X69090500Y-17269748D01*
X69090500Y-15530252D01*
X69078867Y-15471769D01*
X69067328Y-15454500D01*
X69052546Y-15380188D01*
X69094641Y-15317185D01*
X69149644Y-15300500D01*
X76931413Y-15300500D01*
X76993512Y-15300500D01*
X77006433Y-15301346D01*
X77168125Y-15322634D01*
X77193083Y-15329321D01*
X77337707Y-15389226D01*
X77360088Y-15402148D01*
X77484280Y-15497444D01*
X77502555Y-15515719D01*
X77597851Y-15639911D01*
X77610772Y-15662292D01*
X77610773Y-15662293D01*
X77670677Y-15806915D01*
X77677366Y-15831878D01*
X77698653Y-15993566D01*
X77699500Y-16006488D01*
X77699500Y-36993511D01*
X77698653Y-37006433D01*
X77677366Y-37168121D01*
X77670677Y-37193084D01*
X77610773Y-37337706D01*
X77597851Y-37360088D01*
X77502555Y-37484280D01*
X77484280Y-37502555D01*
X77360088Y-37597851D01*
X77337706Y-37610773D01*
X77193084Y-37670677D01*
X77168121Y-37677366D01*
X77006434Y-37698653D01*
X76993512Y-37699500D01*
X16006488Y-37699500D01*
X15993566Y-37698653D01*
X15831878Y-37677366D01*
X15806915Y-37670677D01*
X15662293Y-37610773D01*
X15639911Y-37597851D01*
X15515719Y-37502555D01*
X15497444Y-37484280D01*
X15402148Y-37360088D01*
X15389226Y-37337706D01*
X15329322Y-37193084D01*
X15322634Y-37168125D01*
X15301347Y-37006433D01*
X15300500Y-36993511D01*
X15300500Y-33817739D01*
X17149500Y-33817739D01*
X17149500Y-34182260D01*
X17220612Y-34539769D01*
X17360107Y-34876540D01*
X17360108Y-34876541D01*
X17562623Y-35179625D01*
X17820375Y-35437377D01*
X18123459Y-35639892D01*
X18460229Y-35779387D01*
X18817742Y-35850500D01*
X18817743Y-35850500D01*
X19182257Y-35850500D01*
X19182258Y-35850500D01*
X19539771Y-35779387D01*
X19876541Y-35639892D01*
X20179625Y-35437377D01*
X20437377Y-35179625D01*
X20639892Y-34876541D01*
X20730507Y-34657777D01*
X54579500Y-34657777D01*
X54579500Y-35442223D01*
X54627238Y-35620383D01*
X54719460Y-35780117D01*
X54849883Y-35910540D01*
X55009617Y-36002762D01*
X55187777Y-36050500D01*
X55187779Y-36050500D01*
X55372221Y-36050500D01*
X55372223Y-36050500D01*
X55550383Y-36002762D01*
X55710117Y-35910540D01*
X55840540Y-35780117D01*
X55932762Y-35620383D01*
X55980500Y-35442223D01*
X55980500Y-34657777D01*
X55932762Y-34479617D01*
X55840540Y-34319883D01*
X55710117Y-34189460D01*
X55550383Y-34097238D01*
X55372223Y-34049500D01*
X55187777Y-34049500D01*
X55009617Y-34097238D01*
X54849883Y-34189460D01*
X54719460Y-34319883D01*
X54627238Y-34479617D01*
X54579500Y-34657777D01*
X20730507Y-34657777D01*
X20779387Y-34539771D01*
X20850500Y-34182258D01*
X20850500Y-33817742D01*
X20779387Y-33460229D01*
X20639892Y-33123459D01*
X20437377Y-32820375D01*
X20179625Y-32562623D01*
X19876541Y-32360108D01*
X19876542Y-32360108D01*
X19876540Y-32360107D01*
X19539769Y-32220612D01*
X19182260Y-32149500D01*
X19182258Y-32149500D01*
X18817742Y-32149500D01*
X18817739Y-32149500D01*
X18460230Y-32220612D01*
X18123459Y-32360107D01*
X17820375Y-32562623D01*
X17820371Y-32562626D01*
X17562626Y-32820371D01*
X17562623Y-32820375D01*
X17360107Y-33123459D01*
X17220612Y-33460230D01*
X17149500Y-33817739D01*
X15300500Y-33817739D01*
X15300500Y-30227777D01*
X54579500Y-30227777D01*
X54579500Y-31512223D01*
X54627238Y-31690383D01*
X54719460Y-31850117D01*
X54849883Y-31980540D01*
X55009617Y-32072762D01*
X55187777Y-32120500D01*
X55187779Y-32120500D01*
X55372221Y-32120500D01*
X55372223Y-32120500D01*
X55550383Y-32072762D01*
X55710117Y-31980540D01*
X55840540Y-31850117D01*
X55932762Y-31690383D01*
X55966758Y-31563507D01*
X56012884Y-31503396D01*
X56088007Y-31493505D01*
X56148120Y-31539632D01*
X56158009Y-31563504D01*
X56172058Y-31615938D01*
X56173720Y-31622139D01*
X56249481Y-31753360D01*
X56249483Y-31753362D01*
X56249485Y-31753365D01*
X56356635Y-31860515D01*
X56356637Y-31860516D01*
X56356639Y-31860518D01*
X56487861Y-31936279D01*
X56487859Y-31936279D01*
X56487863Y-31936280D01*
X56487865Y-31936281D01*
X56634234Y-31975500D01*
X56634236Y-31975500D01*
X56785764Y-31975500D01*
X56785766Y-31975500D01*
X56932135Y-31936281D01*
X56932137Y-31936279D01*
X56932139Y-31936279D01*
X57063360Y-31860518D01*
X57063360Y-31860517D01*
X57063365Y-31860515D01*
X57105497Y-31818382D01*
X57175500Y-31789387D01*
X57245504Y-31818383D01*
X57274500Y-31888387D01*
X57274500Y-33064747D01*
X57324052Y-33184378D01*
X57324053Y-33184379D01*
X57324054Y-33184381D01*
X58124054Y-33984381D01*
X58124053Y-33984381D01*
X58215619Y-34075947D01*
X58335252Y-34125500D01*
X58335254Y-34125500D01*
X63314836Y-34125500D01*
X63384840Y-34154496D01*
X63413836Y-34224500D01*
X63384840Y-34294502D01*
X63359460Y-34319883D01*
X63267238Y-34479617D01*
X63219500Y-34657777D01*
X63219500Y-35442223D01*
X63267238Y-35620383D01*
X63359460Y-35780117D01*
X63489883Y-35910540D01*
X63649617Y-36002762D01*
X63827777Y-36050500D01*
X63827779Y-36050500D01*
X64012221Y-36050500D01*
X64012223Y-36050500D01*
X64190383Y-36002762D01*
X64350117Y-35910540D01*
X64480540Y-35780117D01*
X64572762Y-35620383D01*
X64620500Y-35442223D01*
X64620500Y-34657777D01*
X64572762Y-34479617D01*
X64480540Y-34319883D01*
X64455159Y-34294502D01*
X64426164Y-34224500D01*
X64455160Y-34154496D01*
X64525164Y-34125500D01*
X68664747Y-34125500D01*
X68784379Y-34075947D01*
X68784379Y-34075946D01*
X68784381Y-34075946D01*
X69042587Y-33817739D01*
X72149500Y-33817739D01*
X72149500Y-34182260D01*
X72220612Y-34539769D01*
X72360107Y-34876540D01*
X72360108Y-34876541D01*
X72562623Y-35179625D01*
X72820375Y-35437377D01*
X73123459Y-35639892D01*
X73460229Y-35779387D01*
X73817742Y-35850500D01*
X73817743Y-35850500D01*
X74182257Y-35850500D01*
X74182258Y-35850500D01*
X74539771Y-35779387D01*
X74876541Y-35639892D01*
X75179625Y-35437377D01*
X75437377Y-35179625D01*
X75639892Y-34876541D01*
X75779387Y-34539771D01*
X75850500Y-34182258D01*
X75850500Y-33817742D01*
X75779387Y-33460229D01*
X75639892Y-33123459D01*
X75437377Y-32820375D01*
X75179625Y-32562623D01*
X74876541Y-32360108D01*
X74876542Y-32360108D01*
X74876540Y-32360107D01*
X74539769Y-32220612D01*
X74182260Y-32149500D01*
X74182258Y-32149500D01*
X73817742Y-32149500D01*
X73817739Y-32149500D01*
X73460230Y-32220612D01*
X73123459Y-32360107D01*
X72820375Y-32562623D01*
X72820371Y-32562626D01*
X72562626Y-32820371D01*
X72562623Y-32820375D01*
X72360107Y-33123459D01*
X72220612Y-33460230D01*
X72149500Y-33817739D01*
X69042587Y-33817739D01*
X69283617Y-33576708D01*
X69283619Y-33576708D01*
X69375184Y-33485143D01*
X69393489Y-33440949D01*
X69424738Y-33365509D01*
X69424738Y-33274028D01*
X69453733Y-33204025D01*
X69523541Y-33134218D01*
X69599738Y-32950264D01*
X69599738Y-32751152D01*
X69523541Y-32567198D01*
X69382748Y-32426405D01*
X69382746Y-32426404D01*
X69382745Y-32426403D01*
X69294891Y-32390013D01*
X69198794Y-32350208D01*
X68999682Y-32350208D01*
X68923487Y-32381769D01*
X68815730Y-32426403D01*
X68674933Y-32567200D01*
X68619742Y-32700444D01*
X68598738Y-32751152D01*
X68598738Y-32950264D01*
X68646159Y-33064747D01*
X68674935Y-33134219D01*
X68680351Y-33142324D01*
X68676562Y-33144855D01*
X68699187Y-33199477D01*
X68670191Y-33269480D01*
X68494169Y-33445503D01*
X68424165Y-33474500D01*
X67977188Y-33474500D01*
X67907184Y-33445504D01*
X67878188Y-33375500D01*
X67907184Y-33305496D01*
X67939300Y-33284037D01*
X68083510Y-33224303D01*
X68224303Y-33083510D01*
X68300500Y-32899556D01*
X68300500Y-32700444D01*
X68224303Y-32516490D01*
X68129496Y-32421682D01*
X68100500Y-32351679D01*
X68100500Y-31540227D01*
X68054751Y-31429781D01*
X68054751Y-31429780D01*
X66129496Y-29504525D01*
X66100500Y-29434521D01*
X66100500Y-26765478D01*
X66129495Y-26695475D01*
X66929238Y-25895731D01*
X66999241Y-25866736D01*
X67037121Y-25874270D01*
X67100444Y-25900500D01*
X67100446Y-25900500D01*
X67299554Y-25900500D01*
X67299556Y-25900500D01*
X67483510Y-25824303D01*
X67624303Y-25683510D01*
X67700500Y-25499556D01*
X67700500Y-25400835D01*
X67729496Y-25330831D01*
X68905831Y-24154496D01*
X68975835Y-24125500D01*
X75044097Y-24125500D01*
X75114101Y-24154496D01*
X75135560Y-24186612D01*
X75175697Y-24283510D01*
X75316490Y-24424303D01*
X75500444Y-24500500D01*
X75500446Y-24500500D01*
X75699554Y-24500500D01*
X75699556Y-24500500D01*
X75883510Y-24424303D01*
X76024303Y-24283510D01*
X76100500Y-24099556D01*
X76100500Y-23900444D01*
X76024303Y-23716490D01*
X75883510Y-23575697D01*
X75883508Y-23575696D01*
X75883507Y-23575695D01*
X75795653Y-23539305D01*
X75699556Y-23499500D01*
X75699554Y-23499500D01*
X75544794Y-23499500D01*
X75506908Y-23491964D01*
X75464747Y-23474500D01*
X75464746Y-23474500D01*
X68876277Y-23474500D01*
X68876269Y-23474499D01*
X68864746Y-23474499D01*
X68735254Y-23474499D01*
X68704005Y-23487442D01*
X68615621Y-23524052D01*
X67269169Y-24870504D01*
X67199165Y-24899500D01*
X67100444Y-24899500D01*
X67037675Y-24925500D01*
X66916492Y-24975695D01*
X66775695Y-25116492D01*
X66724652Y-25239717D01*
X66703193Y-25271833D01*
X65545249Y-26429779D01*
X65545249Y-26429781D01*
X65499500Y-26540227D01*
X65499500Y-29659772D01*
X65531848Y-29737869D01*
X65540792Y-29759460D01*
X65545249Y-29770220D01*
X67470504Y-31695475D01*
X67499500Y-31765478D01*
X67499500Y-32351679D01*
X67470504Y-32421682D01*
X67375696Y-32516490D01*
X67321817Y-32646565D01*
X67299500Y-32700444D01*
X67299500Y-32899556D01*
X67339305Y-32995653D01*
X67375695Y-33083507D01*
X67375696Y-33083508D01*
X67375697Y-33083510D01*
X67516490Y-33224303D01*
X67660698Y-33284036D01*
X67714276Y-33337614D01*
X67714276Y-33413386D01*
X67660698Y-33466964D01*
X67622812Y-33474500D01*
X58575835Y-33474500D01*
X58505831Y-33445504D01*
X57954496Y-32894169D01*
X57925500Y-32824165D01*
X57925500Y-31324234D01*
X61914500Y-31324234D01*
X61914500Y-31475766D01*
X61938011Y-31563511D01*
X61953720Y-31622139D01*
X62029481Y-31753360D01*
X62029483Y-31753362D01*
X62029485Y-31753365D01*
X62136635Y-31860515D01*
X62136637Y-31860516D01*
X62136639Y-31860518D01*
X62267861Y-31936279D01*
X62267859Y-31936279D01*
X62267863Y-31936280D01*
X62267865Y-31936281D01*
X62414234Y-31975500D01*
X62414236Y-31975500D01*
X62565764Y-31975500D01*
X62565766Y-31975500D01*
X62712135Y-31936281D01*
X62712137Y-31936279D01*
X62712139Y-31936279D01*
X62843360Y-31860518D01*
X62843360Y-31860517D01*
X62843365Y-31860515D01*
X62950515Y-31753365D01*
X63026281Y-31622135D01*
X63041989Y-31563508D01*
X63088113Y-31503396D01*
X63163236Y-31493505D01*
X63223351Y-31539630D01*
X63233241Y-31563506D01*
X63267238Y-31690383D01*
X63359460Y-31850117D01*
X63489883Y-31980540D01*
X63649617Y-32072762D01*
X63827777Y-32120500D01*
X63827779Y-32120500D01*
X64012221Y-32120500D01*
X64012223Y-32120500D01*
X64190383Y-32072762D01*
X64350117Y-31980540D01*
X64480540Y-31850117D01*
X64572762Y-31690383D01*
X64620500Y-31512223D01*
X64620500Y-30227777D01*
X64572762Y-30049617D01*
X64480540Y-29889883D01*
X64350117Y-29759460D01*
X64190383Y-29667238D01*
X64012223Y-29619500D01*
X63827777Y-29619500D01*
X63677477Y-29659773D01*
X63649617Y-29667238D01*
X63489883Y-29759460D01*
X63359460Y-29889883D01*
X63267238Y-30049617D01*
X63219500Y-30227778D01*
X63219500Y-31146989D01*
X63190504Y-31216993D01*
X63120500Y-31245989D01*
X63050496Y-31216993D01*
X63030862Y-31182987D01*
X63028763Y-31183857D01*
X63026279Y-31177861D01*
X62950518Y-31046639D01*
X62950516Y-31046637D01*
X62950515Y-31046635D01*
X62843365Y-30939485D01*
X62843362Y-30939483D01*
X62843360Y-30939481D01*
X62712138Y-30863720D01*
X62712140Y-30863720D01*
X62655347Y-30848503D01*
X62565766Y-30824500D01*
X62414234Y-30824500D01*
X62324652Y-30848503D01*
X62267860Y-30863720D01*
X62136639Y-30939481D01*
X62029481Y-31046639D01*
X61953720Y-31177860D01*
X61952113Y-31183857D01*
X61914500Y-31324234D01*
X57925500Y-31324234D01*
X57925500Y-29049500D01*
X57954496Y-28979496D01*
X58024500Y-28950500D01*
X61601679Y-28950500D01*
X61671682Y-28979496D01*
X61715507Y-29023320D01*
X61716490Y-29024303D01*
X61900444Y-29100500D01*
X61900446Y-29100500D01*
X62099554Y-29100500D01*
X62099556Y-29100500D01*
X62283510Y-29024303D01*
X62424303Y-28883510D01*
X62500500Y-28699556D01*
X62500500Y-28500444D01*
X62424303Y-28316490D01*
X62283510Y-28175697D01*
X62283508Y-28175696D01*
X62283507Y-28175695D01*
X62195653Y-28139305D01*
X62099556Y-28099500D01*
X61900444Y-28099500D01*
X61817098Y-28134023D01*
X61716490Y-28175696D01*
X61671682Y-28220504D01*
X61601679Y-28249500D01*
X57998321Y-28249500D01*
X57928318Y-28220504D01*
X57883509Y-28175696D01*
X57807313Y-28144134D01*
X57699556Y-28099500D01*
X57500444Y-28099500D01*
X57424249Y-28131061D01*
X57316492Y-28175695D01*
X57175695Y-28316492D01*
X57119402Y-28452395D01*
X57099500Y-28500444D01*
X57099500Y-28699556D01*
X57100797Y-28702686D01*
X57175695Y-28883507D01*
X57175696Y-28883508D01*
X57175697Y-28883510D01*
X57245504Y-28953317D01*
X57274500Y-29023320D01*
X57274500Y-30911613D01*
X57245504Y-30981617D01*
X57175500Y-31010613D01*
X57105497Y-30981617D01*
X57063365Y-30939485D01*
X57063362Y-30939483D01*
X57063360Y-30939481D01*
X56932138Y-30863720D01*
X56932140Y-30863720D01*
X56875347Y-30848503D01*
X56785766Y-30824500D01*
X56634234Y-30824500D01*
X56544652Y-30848503D01*
X56487860Y-30863720D01*
X56356639Y-30939481D01*
X56249481Y-31046639D01*
X56173720Y-31177861D01*
X56171237Y-31183857D01*
X56167641Y-31182367D01*
X56128998Y-31232727D01*
X56053874Y-31242615D01*
X55993762Y-31196487D01*
X55980500Y-31146989D01*
X55980500Y-30227778D01*
X55980500Y-30227777D01*
X55932762Y-30049617D01*
X55840540Y-29889883D01*
X55710117Y-29759460D01*
X55550383Y-29667238D01*
X55372223Y-29619500D01*
X55187777Y-29619500D01*
X55009617Y-29667238D01*
X54849883Y-29759460D01*
X54719460Y-29889883D01*
X54627238Y-30049617D01*
X54579500Y-30227777D01*
X15300500Y-30227777D01*
X15300500Y-28205517D01*
X25425000Y-28205517D01*
X25425000Y-28394483D01*
X25497314Y-28569066D01*
X25630934Y-28702686D01*
X25805517Y-28775000D01*
X25994483Y-28775000D01*
X26169066Y-28702686D01*
X26302686Y-28569066D01*
X26375000Y-28394483D01*
X26375000Y-28205517D01*
X26305074Y-28036699D01*
X27349500Y-28036699D01*
X27349500Y-28563301D01*
X27386848Y-28702686D01*
X27421091Y-28830482D01*
X27559387Y-29070017D01*
X27559389Y-29070019D01*
X27559391Y-29070022D01*
X27754978Y-29265609D01*
X27754980Y-29265610D01*
X27754982Y-29265612D01*
X27994518Y-29403908D01*
X27994516Y-29403908D01*
X27994520Y-29403909D01*
X27994522Y-29403910D01*
X28261699Y-29475500D01*
X28261701Y-29475500D01*
X28538299Y-29475500D01*
X28538301Y-29475500D01*
X28805478Y-29403910D01*
X28805480Y-29403908D01*
X28805482Y-29403908D01*
X29045017Y-29265612D01*
X29045017Y-29265611D01*
X29045022Y-29265609D01*
X29240609Y-29070022D01*
X29240612Y-29070017D01*
X29378908Y-28830482D01*
X29378908Y-28830480D01*
X29378910Y-28830478D01*
X29450500Y-28563301D01*
X29450500Y-28036699D01*
X29849500Y-28036699D01*
X29849500Y-28563301D01*
X29886848Y-28702686D01*
X29921091Y-28830482D01*
X30059387Y-29070017D01*
X30059389Y-29070019D01*
X30059391Y-29070022D01*
X30254978Y-29265609D01*
X30254980Y-29265610D01*
X30254982Y-29265612D01*
X30494518Y-29403908D01*
X30494516Y-29403908D01*
X30494520Y-29403909D01*
X30494522Y-29403910D01*
X30761699Y-29475500D01*
X30761701Y-29475500D01*
X31038299Y-29475500D01*
X31038301Y-29475500D01*
X31305478Y-29403910D01*
X31305480Y-29403908D01*
X31305482Y-29403908D01*
X31545017Y-29265612D01*
X31545017Y-29265611D01*
X31545022Y-29265609D01*
X31740609Y-29070022D01*
X31740612Y-29070017D01*
X31878908Y-28830482D01*
X31878908Y-28830480D01*
X31878910Y-28830478D01*
X31950500Y-28563301D01*
X31950500Y-28036699D01*
X32349500Y-28036699D01*
X32349500Y-28563301D01*
X32386848Y-28702686D01*
X32421091Y-28830482D01*
X32559387Y-29070017D01*
X32559389Y-29070019D01*
X32559391Y-29070022D01*
X32754978Y-29265609D01*
X32754980Y-29265610D01*
X32754982Y-29265612D01*
X32994518Y-29403908D01*
X32994516Y-29403908D01*
X32994520Y-29403909D01*
X32994522Y-29403910D01*
X33261699Y-29475500D01*
X33261701Y-29475500D01*
X33538299Y-29475500D01*
X33538301Y-29475500D01*
X33805478Y-29403910D01*
X33805480Y-29403908D01*
X33805482Y-29403908D01*
X34045017Y-29265612D01*
X34045017Y-29265611D01*
X34045022Y-29265609D01*
X34240609Y-29070022D01*
X34240612Y-29070017D01*
X34378908Y-28830482D01*
X34378908Y-28830480D01*
X34378910Y-28830478D01*
X34450500Y-28563301D01*
X34450500Y-28205517D01*
X39025000Y-28205517D01*
X39025000Y-28394483D01*
X39097314Y-28569066D01*
X39230934Y-28702686D01*
X39405517Y-28775000D01*
X39594483Y-28775000D01*
X39769066Y-28702686D01*
X39902686Y-28569066D01*
X39975000Y-28394483D01*
X39975000Y-28205517D01*
X39902686Y-28030934D01*
X39769066Y-27897314D01*
X39594483Y-27825000D01*
X39405517Y-27825000D01*
X39230934Y-27897314D01*
X39097314Y-28030934D01*
X39025000Y-28205517D01*
X34450500Y-28205517D01*
X34450500Y-28036699D01*
X34378910Y-27769522D01*
X34378908Y-27769519D01*
X34378908Y-27769517D01*
X34240612Y-27529982D01*
X34240610Y-27529980D01*
X34240609Y-27529978D01*
X34045022Y-27334391D01*
X34045019Y-27334389D01*
X34045017Y-27334387D01*
X33805481Y-27196091D01*
X33805483Y-27196091D01*
X33701816Y-27168313D01*
X33538301Y-27124500D01*
X33261699Y-27124500D01*
X33098183Y-27168313D01*
X32994517Y-27196091D01*
X32754982Y-27334387D01*
X32559387Y-27529982D01*
X32421091Y-27769517D01*
X32403783Y-27834111D01*
X32349500Y-28036699D01*
X31950500Y-28036699D01*
X31878910Y-27769522D01*
X31878908Y-27769519D01*
X31878908Y-27769517D01*
X31740612Y-27529982D01*
X31740610Y-27529980D01*
X31740609Y-27529978D01*
X31545022Y-27334391D01*
X31545019Y-27334389D01*
X31545017Y-27334387D01*
X31305481Y-27196091D01*
X31305483Y-27196091D01*
X31201816Y-27168313D01*
X31038301Y-27124500D01*
X30761699Y-27124500D01*
X30598183Y-27168313D01*
X30494517Y-27196091D01*
X30254982Y-27334387D01*
X30059387Y-27529982D01*
X29921091Y-27769517D01*
X29903783Y-27834111D01*
X29849500Y-28036699D01*
X29450500Y-28036699D01*
X29378910Y-27769522D01*
X29378908Y-27769519D01*
X29378908Y-27769517D01*
X29240612Y-27529982D01*
X29240610Y-27529980D01*
X29240609Y-27529978D01*
X29045022Y-27334391D01*
X29045019Y-27334389D01*
X29045017Y-27334387D01*
X28805481Y-27196091D01*
X28805483Y-27196091D01*
X28701816Y-27168313D01*
X28538301Y-27124500D01*
X28261699Y-27124500D01*
X28098183Y-27168313D01*
X27994517Y-27196091D01*
X27754982Y-27334387D01*
X27559387Y-27529982D01*
X27421091Y-27769517D01*
X27403783Y-27834111D01*
X27349500Y-28036699D01*
X26305074Y-28036699D01*
X26302686Y-28030934D01*
X26169066Y-27897314D01*
X25994483Y-27825000D01*
X25805517Y-27825000D01*
X25630934Y-27897314D01*
X25497314Y-28030934D01*
X25425000Y-28205517D01*
X15300500Y-28205517D01*
X15300500Y-25700444D01*
X22299500Y-25700444D01*
X22299500Y-25899556D01*
X22324465Y-25959826D01*
X22375695Y-26083507D01*
X22375696Y-26083508D01*
X22375697Y-26083510D01*
X22516490Y-26224303D01*
X22700444Y-26300500D01*
X22700446Y-26300500D01*
X22899554Y-26300500D01*
X22899556Y-26300500D01*
X23083510Y-26224303D01*
X23224303Y-26083510D01*
X23300132Y-25900444D01*
X30099500Y-25900444D01*
X30099500Y-26099556D01*
X30139305Y-26195653D01*
X30175695Y-26283507D01*
X30175696Y-26283508D01*
X30175697Y-26283510D01*
X30316490Y-26424303D01*
X30316491Y-26424303D01*
X30316492Y-26424304D01*
X30329715Y-26429781D01*
X30500444Y-26500500D01*
X30500446Y-26500500D01*
X30699554Y-26500500D01*
X30699556Y-26500500D01*
X30883510Y-26424303D01*
X31024303Y-26283510D01*
X31100500Y-26099556D01*
X31100500Y-26000834D01*
X31129496Y-25930830D01*
X31305830Y-25754496D01*
X31375834Y-25725500D01*
X33064747Y-25725500D01*
X33140187Y-25694251D01*
X33184381Y-25675946D01*
X33730831Y-25129496D01*
X33800835Y-25100500D01*
X33899554Y-25100500D01*
X33899556Y-25100500D01*
X34083510Y-25024303D01*
X34132118Y-24975695D01*
X34153318Y-24954496D01*
X34223321Y-24925500D01*
X38124165Y-24925500D01*
X38194169Y-24954496D01*
X40978159Y-27738485D01*
X41007155Y-27808489D01*
X41003782Y-27834111D01*
X40951045Y-28030934D01*
X40949500Y-28036699D01*
X40949500Y-28563301D01*
X40986848Y-28702686D01*
X41021091Y-28830482D01*
X41159387Y-29070017D01*
X41159389Y-29070019D01*
X41159391Y-29070022D01*
X41354978Y-29265609D01*
X41354980Y-29265610D01*
X41354982Y-29265612D01*
X41594518Y-29403908D01*
X41594516Y-29403908D01*
X41594520Y-29403909D01*
X41594522Y-29403910D01*
X41861699Y-29475500D01*
X41861701Y-29475500D01*
X42138299Y-29475500D01*
X42138301Y-29475500D01*
X42405478Y-29403910D01*
X42405480Y-29403908D01*
X42405482Y-29403908D01*
X42645017Y-29265612D01*
X42645017Y-29265611D01*
X42645022Y-29265609D01*
X42840609Y-29070022D01*
X42840612Y-29070017D01*
X42978908Y-28830482D01*
X42978908Y-28830480D01*
X42978910Y-28830478D01*
X43050500Y-28563301D01*
X43050500Y-28036699D01*
X43449500Y-28036699D01*
X43449500Y-28563301D01*
X43486848Y-28702686D01*
X43521091Y-28830482D01*
X43659387Y-29070017D01*
X43659389Y-29070019D01*
X43659391Y-29070022D01*
X43854978Y-29265609D01*
X43854980Y-29265610D01*
X43854982Y-29265612D01*
X44094518Y-29403908D01*
X44094516Y-29403908D01*
X44094520Y-29403909D01*
X44094522Y-29403910D01*
X44361699Y-29475500D01*
X44361701Y-29475500D01*
X44638299Y-29475500D01*
X44638301Y-29475500D01*
X44905478Y-29403910D01*
X44905480Y-29403908D01*
X44905482Y-29403908D01*
X45145017Y-29265612D01*
X45145017Y-29265611D01*
X45145022Y-29265609D01*
X45340609Y-29070022D01*
X45340612Y-29070017D01*
X45478908Y-28830482D01*
X45478908Y-28830480D01*
X45478910Y-28830478D01*
X45550500Y-28563301D01*
X45550500Y-28036699D01*
X45478910Y-27769522D01*
X45478908Y-27769519D01*
X45478908Y-27769517D01*
X45340612Y-27529982D01*
X45340610Y-27529980D01*
X45340609Y-27529978D01*
X45145022Y-27334391D01*
X45145019Y-27334389D01*
X45145017Y-27334387D01*
X44905481Y-27196091D01*
X44905483Y-27196091D01*
X44801816Y-27168313D01*
X44638301Y-27124500D01*
X44361699Y-27124500D01*
X44198183Y-27168313D01*
X44094517Y-27196091D01*
X43854982Y-27334387D01*
X43659387Y-27529982D01*
X43521091Y-27769517D01*
X43503783Y-27834111D01*
X43449500Y-28036699D01*
X43050500Y-28036699D01*
X42978910Y-27769522D01*
X42978908Y-27769519D01*
X42978908Y-27769517D01*
X42840612Y-27529982D01*
X42840610Y-27529980D01*
X42840609Y-27529978D01*
X42645022Y-27334391D01*
X42645019Y-27334389D01*
X42645017Y-27334387D01*
X42405481Y-27196091D01*
X42405483Y-27196091D01*
X42301816Y-27168313D01*
X42138301Y-27124500D01*
X41861699Y-27124500D01*
X41728110Y-27160295D01*
X41594520Y-27196090D01*
X41509356Y-27245259D01*
X41434233Y-27255148D01*
X41389853Y-27229526D01*
X41254831Y-27094504D01*
X41225835Y-27024500D01*
X41254831Y-26954496D01*
X41324835Y-26925500D01*
X45124165Y-26925500D01*
X45194169Y-26954496D01*
X45978159Y-27738486D01*
X46007155Y-27808490D01*
X46003782Y-27834113D01*
X45986848Y-27897314D01*
X45949500Y-28036699D01*
X45949500Y-28563301D01*
X45986848Y-28702686D01*
X46021091Y-28830482D01*
X46159387Y-29070017D01*
X46159389Y-29070019D01*
X46159391Y-29070022D01*
X46354978Y-29265609D01*
X46354980Y-29265610D01*
X46354982Y-29265612D01*
X46594518Y-29403908D01*
X46594516Y-29403908D01*
X46594520Y-29403909D01*
X46594522Y-29403910D01*
X46861699Y-29475500D01*
X46861701Y-29475500D01*
X47138299Y-29475500D01*
X47138301Y-29475500D01*
X47405478Y-29403910D01*
X47405480Y-29403908D01*
X47405482Y-29403908D01*
X47645017Y-29265612D01*
X47645017Y-29265611D01*
X47645022Y-29265609D01*
X47840609Y-29070022D01*
X47840612Y-29070017D01*
X47978908Y-28830482D01*
X47978908Y-28830480D01*
X47978910Y-28830478D01*
X48050500Y-28563301D01*
X48050500Y-28036699D01*
X47978910Y-27769522D01*
X47978908Y-27769519D01*
X47978908Y-27769517D01*
X47840612Y-27529982D01*
X47840610Y-27529980D01*
X47840609Y-27529978D01*
X47645022Y-27334391D01*
X47645019Y-27334389D01*
X47645017Y-27334387D01*
X47405481Y-27196091D01*
X47405483Y-27196091D01*
X47301816Y-27168313D01*
X47138301Y-27124500D01*
X46861699Y-27124500D01*
X46728110Y-27160295D01*
X46594520Y-27196090D01*
X46509356Y-27245259D01*
X46434233Y-27255148D01*
X46389853Y-27229526D01*
X46050876Y-26890549D01*
X45484381Y-26324054D01*
X45484379Y-26324053D01*
X45484378Y-26324052D01*
X45364748Y-26274500D01*
X45364746Y-26274500D01*
X41375834Y-26274500D01*
X41305830Y-26245504D01*
X39700499Y-24640173D01*
X38049381Y-22989054D01*
X38049379Y-22989053D01*
X38049378Y-22989052D01*
X37929748Y-22939500D01*
X37929746Y-22939500D01*
X37476305Y-22939500D01*
X37406301Y-22910504D01*
X37380678Y-22866121D01*
X37378909Y-22859519D01*
X37378908Y-22859518D01*
X37240612Y-22619982D01*
X37240610Y-22619980D01*
X37240609Y-22619978D01*
X37045022Y-22424391D01*
X37045019Y-22424389D01*
X37045017Y-22424387D01*
X36805481Y-22286091D01*
X36805483Y-22286091D01*
X36701816Y-22258313D01*
X36538301Y-22214500D01*
X36261699Y-22214500D01*
X36098183Y-22258313D01*
X35994517Y-22286091D01*
X35754982Y-22424387D01*
X35559387Y-22619982D01*
X35421091Y-22859517D01*
X35407429Y-22910504D01*
X35349500Y-23126699D01*
X35349500Y-23403301D01*
X35399660Y-23590500D01*
X35421091Y-23670482D01*
X35559387Y-23910017D01*
X35559389Y-23910019D01*
X35559391Y-23910022D01*
X35754866Y-24105497D01*
X35783862Y-24175500D01*
X35754866Y-24245504D01*
X35684862Y-24274500D01*
X34223321Y-24274500D01*
X34153318Y-24245504D01*
X34083509Y-24175696D01*
X34007313Y-24144134D01*
X33899556Y-24099500D01*
X33700444Y-24099500D01*
X33637675Y-24125500D01*
X33516492Y-24175695D01*
X33375695Y-24316492D01*
X33299500Y-24500445D01*
X33299500Y-24599165D01*
X33270504Y-24669169D01*
X32894169Y-25045504D01*
X32824165Y-25074500D01*
X31135252Y-25074500D01*
X31015619Y-25124052D01*
X30924053Y-25215618D01*
X30924054Y-25215619D01*
X30669169Y-25470504D01*
X30599165Y-25499500D01*
X30500444Y-25499500D01*
X30424249Y-25531061D01*
X30316492Y-25575695D01*
X30175695Y-25716492D01*
X30120826Y-25848958D01*
X30099500Y-25900444D01*
X23300132Y-25900444D01*
X23300500Y-25899556D01*
X23300500Y-25700444D01*
X23224303Y-25516490D01*
X23207313Y-25499500D01*
X23154496Y-25446682D01*
X23125500Y-25376679D01*
X23125500Y-19855253D01*
X35349500Y-19855253D01*
X35349500Y-21594746D01*
X35349501Y-21594758D01*
X35361132Y-21653227D01*
X35361134Y-21653233D01*
X35405445Y-21719548D01*
X35405448Y-21719552D01*
X35471769Y-21763867D01*
X35516231Y-21772711D01*
X35530241Y-21775498D01*
X35530246Y-21775498D01*
X35530252Y-21775500D01*
X35530253Y-21775500D01*
X37269747Y-21775500D01*
X37269748Y-21775500D01*
X37328231Y-21763867D01*
X37394552Y-21719552D01*
X37438867Y-21653231D01*
X37450500Y-21594748D01*
X37450500Y-21180517D01*
X40775000Y-21180517D01*
X40775000Y-21369483D01*
X40847314Y-21544066D01*
X40980934Y-21677686D01*
X41155517Y-21750000D01*
X41344483Y-21750000D01*
X41519066Y-21677686D01*
X41652686Y-21544066D01*
X41725000Y-21369483D01*
X41725000Y-21180517D01*
X41655074Y-21011699D01*
X42699500Y-21011699D01*
X42699500Y-21538301D01*
X42730296Y-21653233D01*
X42771091Y-21805482D01*
X42909387Y-22045017D01*
X42909389Y-22045019D01*
X42909391Y-22045022D01*
X43104978Y-22240609D01*
X43104980Y-22240610D01*
X43104982Y-22240612D01*
X43344518Y-22378908D01*
X43344516Y-22378908D01*
X43344520Y-22378909D01*
X43344522Y-22378910D01*
X43611699Y-22450500D01*
X43611701Y-22450500D01*
X43888299Y-22450500D01*
X43888301Y-22450500D01*
X44155478Y-22378910D01*
X44155480Y-22378908D01*
X44155482Y-22378908D01*
X44395017Y-22240612D01*
X44395017Y-22240611D01*
X44395022Y-22240609D01*
X44590609Y-22045022D01*
X44728910Y-21805478D01*
X44800500Y-21538301D01*
X44800500Y-21011699D01*
X44728910Y-20744522D01*
X44728908Y-20744519D01*
X44728908Y-20744517D01*
X44590612Y-20504982D01*
X44590610Y-20504980D01*
X44590609Y-20504978D01*
X44395022Y-20309391D01*
X44395019Y-20309389D01*
X44395017Y-20309387D01*
X44155481Y-20171091D01*
X44155483Y-20171091D01*
X44051816Y-20143313D01*
X43888301Y-20099500D01*
X43611699Y-20099500D01*
X43448183Y-20143313D01*
X43344517Y-20171091D01*
X43104982Y-20309387D01*
X42909387Y-20504982D01*
X42771091Y-20744517D01*
X42753177Y-20811373D01*
X42699500Y-21011699D01*
X41655074Y-21011699D01*
X41652686Y-21005934D01*
X41519066Y-20872314D01*
X41344483Y-20800000D01*
X41155517Y-20800000D01*
X40980934Y-20872314D01*
X40847314Y-21005934D01*
X40775000Y-21180517D01*
X37450500Y-21180517D01*
X37450500Y-19855252D01*
X37438867Y-19796769D01*
X37394552Y-19730448D01*
X37394548Y-19730445D01*
X37328233Y-19686134D01*
X37328231Y-19686133D01*
X37328228Y-19686132D01*
X37328227Y-19686132D01*
X37269758Y-19674501D01*
X37269748Y-19674500D01*
X35530252Y-19674500D01*
X35530251Y-19674500D01*
X35530241Y-19674501D01*
X35471772Y-19686132D01*
X35471766Y-19686134D01*
X35405451Y-19730445D01*
X35405445Y-19730451D01*
X35361134Y-19796766D01*
X35361132Y-19796772D01*
X35349501Y-19855241D01*
X35349500Y-19855253D01*
X23125500Y-19855253D01*
X23125500Y-19775834D01*
X23154496Y-19705830D01*
X24105830Y-18754496D01*
X24175834Y-18725500D01*
X30776679Y-18725500D01*
X30846682Y-18754496D01*
X30909926Y-18817739D01*
X30916490Y-18824303D01*
X31100444Y-18900500D01*
X31100446Y-18900500D01*
X31299554Y-18900500D01*
X31299556Y-18900500D01*
X31483510Y-18824303D01*
X31505913Y-18801899D01*
X31528318Y-18779496D01*
X31598321Y-18750500D01*
X43188810Y-18750500D01*
X43258814Y-18779496D01*
X45220687Y-20741369D01*
X45249683Y-20811373D01*
X45246310Y-20836995D01*
X45236847Y-20872314D01*
X45199500Y-21011699D01*
X45199500Y-21538301D01*
X45230296Y-21653233D01*
X45271091Y-21805482D01*
X45409387Y-22045017D01*
X45409389Y-22045019D01*
X45409391Y-22045022D01*
X45604978Y-22240609D01*
X45604980Y-22240610D01*
X45604982Y-22240612D01*
X45844518Y-22378908D01*
X45844516Y-22378908D01*
X45844520Y-22378909D01*
X45844522Y-22378910D01*
X46111699Y-22450500D01*
X46111701Y-22450500D01*
X46388299Y-22450500D01*
X46388301Y-22450500D01*
X46655478Y-22378910D01*
X46655480Y-22378908D01*
X46655482Y-22378908D01*
X46895017Y-22240612D01*
X46895017Y-22240611D01*
X46895022Y-22240609D01*
X47090609Y-22045022D01*
X47228910Y-21805478D01*
X47300500Y-21538301D01*
X47300500Y-21011699D01*
X47699500Y-21011699D01*
X47699500Y-21538301D01*
X47730296Y-21653233D01*
X47771091Y-21805482D01*
X47909387Y-22045017D01*
X47909389Y-22045019D01*
X47909391Y-22045022D01*
X48104978Y-22240609D01*
X48104980Y-22240610D01*
X48104982Y-22240612D01*
X48344518Y-22378908D01*
X48344516Y-22378908D01*
X48344520Y-22378909D01*
X48344522Y-22378910D01*
X48611699Y-22450500D01*
X48611701Y-22450500D01*
X48888299Y-22450500D01*
X48888301Y-22450500D01*
X49155478Y-22378910D01*
X49155480Y-22378908D01*
X49155482Y-22378908D01*
X49395017Y-22240612D01*
X49395017Y-22240611D01*
X49395022Y-22240609D01*
X49590609Y-22045022D01*
X49728910Y-21805478D01*
X49800500Y-21538301D01*
X49800500Y-21011699D01*
X49728910Y-20744522D01*
X49728908Y-20744519D01*
X49728908Y-20744517D01*
X49590612Y-20504982D01*
X49590610Y-20504980D01*
X49590609Y-20504978D01*
X49395022Y-20309391D01*
X49395019Y-20309389D01*
X49395017Y-20309387D01*
X49155481Y-20171091D01*
X49155483Y-20171091D01*
X49051816Y-20143313D01*
X48888301Y-20099500D01*
X48611699Y-20099500D01*
X48448183Y-20143313D01*
X48344517Y-20171091D01*
X48104982Y-20309387D01*
X47909387Y-20504982D01*
X47771091Y-20744517D01*
X47753177Y-20811373D01*
X47699500Y-21011699D01*
X47300500Y-21011699D01*
X47228910Y-20744522D01*
X47228908Y-20744519D01*
X47228908Y-20744517D01*
X47090612Y-20504982D01*
X47090610Y-20504980D01*
X47090609Y-20504978D01*
X46895022Y-20309391D01*
X46895019Y-20309389D01*
X46895017Y-20309387D01*
X46655481Y-20171091D01*
X46655483Y-20171091D01*
X46551816Y-20143313D01*
X46388301Y-20099500D01*
X46111699Y-20099500D01*
X45933581Y-20147226D01*
X45844521Y-20171090D01*
X45781769Y-20207319D01*
X45706646Y-20217207D01*
X45662267Y-20191585D01*
X45010451Y-19539769D01*
X44288421Y-18817739D01*
X72149500Y-18817739D01*
X72149500Y-19182260D01*
X72220612Y-19539769D01*
X72360107Y-19876540D01*
X72360108Y-19876541D01*
X72562623Y-20179625D01*
X72820375Y-20437377D01*
X73123459Y-20639892D01*
X73460229Y-20779387D01*
X73817742Y-20850500D01*
X73817743Y-20850500D01*
X74182257Y-20850500D01*
X74182258Y-20850500D01*
X74539771Y-20779387D01*
X74876541Y-20639892D01*
X75179625Y-20437377D01*
X75437377Y-20179625D01*
X75639892Y-19876541D01*
X75779387Y-19539771D01*
X75850500Y-19182258D01*
X75850500Y-18817742D01*
X75779387Y-18460229D01*
X75639892Y-18123459D01*
X75437377Y-17820375D01*
X75179625Y-17562623D01*
X74876541Y-17360108D01*
X74876542Y-17360108D01*
X74876540Y-17360107D01*
X74539769Y-17220612D01*
X74182260Y-17149500D01*
X74182258Y-17149500D01*
X73817742Y-17149500D01*
X73817739Y-17149500D01*
X73460230Y-17220612D01*
X73123459Y-17360107D01*
X72820375Y-17562623D01*
X72820371Y-17562626D01*
X72562626Y-17820371D01*
X72562623Y-17820375D01*
X72360107Y-18123459D01*
X72220612Y-18460230D01*
X72149500Y-18817739D01*
X44288421Y-18817739D01*
X43573542Y-18102860D01*
X43573540Y-18102859D01*
X43573539Y-18102858D01*
X43444720Y-18049500D01*
X43444719Y-18049500D01*
X31598321Y-18049500D01*
X31528318Y-18020504D01*
X31483509Y-17975696D01*
X31407313Y-17944134D01*
X31299556Y-17899500D01*
X31100444Y-17899500D01*
X31017098Y-17934023D01*
X30916490Y-17975696D01*
X30846682Y-18045504D01*
X30776679Y-18074500D01*
X23935252Y-18074500D01*
X23815619Y-18124052D01*
X23724053Y-18215618D01*
X23724054Y-18215619D01*
X23724053Y-18215620D01*
X22615619Y-19324053D01*
X22615619Y-19324054D01*
X22615618Y-19324053D01*
X22524052Y-19415619D01*
X22474500Y-19535252D01*
X22474500Y-25376679D01*
X22445504Y-25446682D01*
X22375696Y-25516490D01*
X22351173Y-25575695D01*
X22299500Y-25700444D01*
X15300500Y-25700444D01*
X15300500Y-18817739D01*
X17149500Y-18817739D01*
X17149500Y-19182260D01*
X17220612Y-19539769D01*
X17360107Y-19876540D01*
X17360108Y-19876541D01*
X17562623Y-20179625D01*
X17820375Y-20437377D01*
X18123459Y-20639892D01*
X18460229Y-20779387D01*
X18817742Y-20850500D01*
X18817743Y-20850500D01*
X19182257Y-20850500D01*
X19182258Y-20850500D01*
X19539771Y-20779387D01*
X19876541Y-20639892D01*
X20179625Y-20437377D01*
X20437377Y-20179625D01*
X20639892Y-19876541D01*
X20779387Y-19539771D01*
X20850500Y-19182258D01*
X20850500Y-18817742D01*
X20779387Y-18460229D01*
X20639892Y-18123459D01*
X20437377Y-17820375D01*
X20179625Y-17562623D01*
X19876541Y-17360108D01*
X19876542Y-17360108D01*
X19876540Y-17360107D01*
X19539769Y-17220612D01*
X19182260Y-17149500D01*
X19182258Y-17149500D01*
X18817742Y-17149500D01*
X18817739Y-17149500D01*
X18460230Y-17220612D01*
X18123459Y-17360107D01*
X17820375Y-17562623D01*
X17820371Y-17562626D01*
X17562626Y-17820371D01*
X17562623Y-17820375D01*
X17360107Y-18123459D01*
X17220612Y-18460230D01*
X17149500Y-18817739D01*
X15300500Y-18817739D01*
X15300500Y-16006488D01*
X15301347Y-15993566D01*
X15319791Y-15853469D01*
X15322634Y-15831872D01*
X15329321Y-15806918D01*
X15389228Y-15662289D01*
X15402148Y-15639911D01*
X15497447Y-15515715D01*
X15515715Y-15497447D01*
X15639913Y-15402146D01*
X15662289Y-15389228D01*
X15806918Y-15329321D01*
X15831872Y-15322634D01*
X15993566Y-15301346D01*
X16006488Y-15300500D01*
X16068587Y-15300500D01*
X24293917Y-15300500D01*
X24363921Y-15329496D01*
G37*
%TD.AperFunction*%
%TD*%
M02*
